; NON-PLATED HOLES START AT T1
; THROUGH (PLATED) HOLES START AT T100
M48
INCH
T1C0.130000
T2C0.125984
T100C0.031497
T101C0.036111
T102C0.030000
T103C0.015748
T104C0.042000
T105C0.035000
T106C0.038000
T107C0.100000
T108C0.040000
%
T1
X019897Y009263
T2
X000997Y023513
X020747Y001013
X020747Y023513
X000997Y001013
T100
X011997Y003013
X012982Y003013
T101
X010497Y019513
X010497Y014513
X001497Y019513
X010497Y020513
X010497Y018513
X010497Y016513
X001497Y015513
X001497Y017513
X001497Y013513
X001497Y020513
X001497Y016513
X010497Y013513
X001497Y014513
X010497Y017513
X010497Y015513
X001497Y018513
T102
X012999Y004763
X011997Y004763
T103
X007489Y005020
T104
X004747Y006013
X001767Y006013
T105
X014497Y005513
X006997Y008513
X010997Y009513
X004747Y011513
X014497Y001513
X008747Y011513
X011997Y006763
X011997Y013263
X012997Y006763
X012997Y013263
X010997Y008513
X006997Y009513
T106
X014997Y013263
X014997Y016263
X014997Y014263
X014997Y015263
T107
X016097Y019213
X018497Y019213
X017297Y021113
T108
X003489Y007520
X005989Y004020
X008989Y004020
X003989Y004020
X001989Y004020
X000989Y004020
X013997Y010263
X004989Y004020
X002489Y007520
X007989Y004020
X013997Y009263
X006989Y004020
X001489Y007520
X017297Y023363
X013997Y008263
X015919Y023363
X009989Y004020
T00
M30
