G04 MADE WITH FRITZING*
G04 WWW.FRITZING.ORG*
G04 DOUBLE SIDED*
G04 HOLES PLATED*
G04 CONTOUR ON CENTER OF CONTOUR VECTOR*
%ASAXBY*%
%FSLAX23Y23*%
%MOIN*%
%OFA0B0*%
%SFA1.0B1.0*%
%ADD10C,0.087778*%
%ADD11C,0.085000*%
%ADD12C,0.090000*%
%ADD13C,0.150000*%
%ADD14C,0.070000*%
%ADD15C,0.140000*%
%ADD16C,0.072992*%
%ADD17C,0.080000*%
%ADD18C,0.092000*%
%ADD19C,0.049370*%
%ADD20C,0.088000*%
%ADD21C,0.135984*%
%ADD22R,0.090000X0.090000*%
%ADD23R,0.085000X0.085000*%
%ADD24R,0.072992X0.072992*%
%ADD25R,0.092000X0.092000*%
%ADD26R,0.001000X0.001000*%
%LNMASK1*%
G90*
G70*
G54D10*
X150Y2051D03*
X150Y1951D03*
X150Y1851D03*
X150Y1751D03*
X150Y1651D03*
X150Y1551D03*
X150Y1451D03*
X150Y1351D03*
X1050Y1351D03*
X1050Y1451D03*
X1050Y1551D03*
X1050Y1651D03*
X1050Y1751D03*
X1050Y1851D03*
X1050Y1951D03*
X1050Y2051D03*
G54D11*
X1100Y951D03*
X700Y951D03*
X1100Y851D03*
X700Y851D03*
G54D12*
X999Y402D03*
X899Y402D03*
X799Y402D03*
X699Y402D03*
X599Y402D03*
X499Y402D03*
X399Y402D03*
G54D13*
X1610Y1921D03*
X1850Y1921D03*
X1730Y2111D03*
G54D14*
X1400Y1026D03*
X1400Y926D03*
X1400Y826D03*
G54D15*
X1990Y926D03*
G54D14*
X1400Y1026D03*
X1400Y926D03*
X1400Y826D03*
G54D15*
X1990Y926D03*
G54D11*
X1200Y1326D03*
X1300Y1326D03*
X1200Y676D03*
X1300Y676D03*
X1450Y551D03*
X1450Y151D03*
G54D16*
X1298Y301D03*
X1200Y301D03*
G54D17*
X1200Y476D03*
X1300Y476D03*
G54D14*
X149Y752D03*
X249Y752D03*
X349Y752D03*
X149Y752D03*
X249Y752D03*
X349Y752D03*
G54D11*
X475Y1151D03*
X875Y1151D03*
G54D18*
X475Y601D03*
X177Y601D03*
G54D19*
X749Y502D03*
G54D12*
X199Y402D03*
X99Y402D03*
G54D20*
X1500Y1326D03*
X1500Y1426D03*
X1500Y1526D03*
X1500Y1626D03*
G54D12*
X1730Y2336D03*
X1592Y2336D03*
G54D21*
X2075Y2351D03*
X2075Y101D03*
X100Y2351D03*
X100Y101D03*
G54D22*
X999Y402D03*
G54D23*
X1200Y1326D03*
X1200Y676D03*
G54D24*
X1298Y301D03*
G54D25*
X476Y601D03*
G54D22*
X199Y402D03*
X1730Y2336D03*
G54D26*
X1364Y1062D02*
X1434Y1062D01*
X1359Y1061D02*
X1438Y1061D01*
X1357Y1060D02*
X1441Y1060D01*
X1354Y1059D02*
X1443Y1059D01*
X1352Y1058D02*
X1445Y1058D01*
X1351Y1057D02*
X1447Y1057D01*
X1349Y1056D02*
X1448Y1056D01*
X1348Y1055D02*
X1450Y1055D01*
X1346Y1054D02*
X1451Y1054D01*
X1345Y1053D02*
X1452Y1053D01*
X1344Y1052D02*
X1453Y1052D01*
X1343Y1051D02*
X1454Y1051D01*
X1342Y1050D02*
X1455Y1050D01*
X1342Y1049D02*
X1456Y1049D01*
X1341Y1048D02*
X1456Y1048D01*
X1340Y1047D02*
X1457Y1047D01*
X1340Y1046D02*
X1458Y1046D01*
X1339Y1045D02*
X1458Y1045D01*
X1338Y1044D02*
X1459Y1044D01*
X1338Y1043D02*
X1459Y1043D01*
X1337Y1042D02*
X1394Y1042D01*
X1403Y1042D02*
X1460Y1042D01*
X1337Y1041D02*
X1392Y1041D01*
X1406Y1041D02*
X1460Y1041D01*
X1337Y1040D02*
X1390Y1040D01*
X1407Y1040D02*
X1461Y1040D01*
X1336Y1039D02*
X1389Y1039D01*
X1409Y1039D02*
X1461Y1039D01*
X1336Y1038D02*
X1388Y1038D01*
X1410Y1038D02*
X1461Y1038D01*
X1336Y1037D02*
X1387Y1037D01*
X1411Y1037D02*
X1462Y1037D01*
X1335Y1036D02*
X1386Y1036D01*
X1412Y1036D02*
X1462Y1036D01*
X1335Y1035D02*
X1385Y1035D01*
X1412Y1035D02*
X1462Y1035D01*
X1335Y1034D02*
X1385Y1034D01*
X1413Y1034D02*
X1462Y1034D01*
X1335Y1033D02*
X1384Y1033D01*
X1413Y1033D02*
X1463Y1033D01*
X1335Y1032D02*
X1384Y1032D01*
X1413Y1032D02*
X1463Y1032D01*
X1334Y1031D02*
X1384Y1031D01*
X1414Y1031D02*
X1463Y1031D01*
X1334Y1030D02*
X1383Y1030D01*
X1414Y1030D02*
X1463Y1030D01*
X1334Y1029D02*
X1383Y1029D01*
X1414Y1029D02*
X1463Y1029D01*
X1334Y1028D02*
X1383Y1028D01*
X1414Y1028D02*
X1463Y1028D01*
X1334Y1027D02*
X1383Y1027D01*
X1414Y1027D02*
X1463Y1027D01*
X1334Y1026D02*
X1383Y1026D01*
X1414Y1026D02*
X1463Y1026D01*
X1334Y1025D02*
X1383Y1025D01*
X1414Y1025D02*
X1463Y1025D01*
X1334Y1024D02*
X1384Y1024D01*
X1414Y1024D02*
X1463Y1024D01*
X1335Y1023D02*
X1384Y1023D01*
X1413Y1023D02*
X1463Y1023D01*
X1335Y1022D02*
X1384Y1022D01*
X1413Y1022D02*
X1463Y1022D01*
X1335Y1021D02*
X1385Y1021D01*
X1413Y1021D02*
X1462Y1021D01*
X1335Y1020D02*
X1385Y1020D01*
X1412Y1020D02*
X1462Y1020D01*
X1335Y1019D02*
X1386Y1019D01*
X1412Y1019D02*
X1462Y1019D01*
X1336Y1018D02*
X1387Y1018D01*
X1411Y1018D02*
X1462Y1018D01*
X1336Y1017D02*
X1388Y1017D01*
X1410Y1017D02*
X1461Y1017D01*
X1336Y1016D02*
X1389Y1016D01*
X1409Y1016D02*
X1461Y1016D01*
X1337Y1015D02*
X1390Y1015D01*
X1408Y1015D02*
X1461Y1015D01*
X1337Y1014D02*
X1392Y1014D01*
X1406Y1014D02*
X1460Y1014D01*
X1337Y1013D02*
X1394Y1013D01*
X1403Y1013D02*
X1460Y1013D01*
X1338Y1012D02*
X1459Y1012D01*
X1338Y1011D02*
X1459Y1011D01*
X1339Y1010D02*
X1458Y1010D01*
X1340Y1009D02*
X1458Y1009D01*
X1340Y1008D02*
X1457Y1008D01*
X1341Y1007D02*
X1456Y1007D01*
X1342Y1006D02*
X1456Y1006D01*
X1342Y1005D02*
X1455Y1005D01*
X1343Y1004D02*
X1454Y1004D01*
X1344Y1003D02*
X1453Y1003D01*
X1345Y1002D02*
X1452Y1002D01*
X1346Y1001D02*
X1451Y1001D01*
X1348Y1000D02*
X1450Y1000D01*
X1349Y999D02*
X1448Y999D01*
X1351Y998D02*
X1447Y998D01*
X1352Y997D02*
X1445Y997D01*
X1354Y996D02*
X1443Y996D01*
X1357Y995D02*
X1441Y995D01*
X1359Y994D02*
X1438Y994D01*
X1364Y993D02*
X1434Y993D01*
X1364Y962D02*
X1434Y962D01*
X1359Y961D02*
X1438Y961D01*
X1356Y960D02*
X1441Y960D01*
X1354Y959D02*
X1443Y959D01*
X1352Y958D02*
X1445Y958D01*
X1351Y957D02*
X1447Y957D01*
X1349Y956D02*
X1448Y956D01*
X1348Y955D02*
X1450Y955D01*
X1346Y954D02*
X1451Y954D01*
X1345Y953D02*
X1452Y953D01*
X1344Y952D02*
X1453Y952D01*
X1343Y951D02*
X1454Y951D01*
X1342Y950D02*
X1455Y950D01*
X1342Y949D02*
X1456Y949D01*
X1341Y948D02*
X1456Y948D01*
X1340Y947D02*
X1457Y947D01*
X1340Y946D02*
X1458Y946D01*
X1339Y945D02*
X1458Y945D01*
X1338Y944D02*
X1459Y944D01*
X1338Y943D02*
X1459Y943D01*
X1337Y942D02*
X1394Y942D01*
X1403Y942D02*
X1460Y942D01*
X1337Y941D02*
X1392Y941D01*
X1406Y941D02*
X1460Y941D01*
X1337Y940D02*
X1390Y940D01*
X1408Y940D02*
X1461Y940D01*
X1336Y939D02*
X1389Y939D01*
X1409Y939D02*
X1461Y939D01*
X1336Y938D02*
X1387Y938D01*
X1410Y938D02*
X1461Y938D01*
X1336Y937D02*
X1387Y937D01*
X1411Y937D02*
X1462Y937D01*
X1335Y936D02*
X1386Y936D01*
X1412Y936D02*
X1462Y936D01*
X1335Y935D02*
X1385Y935D01*
X1412Y935D02*
X1462Y935D01*
X1335Y934D02*
X1385Y934D01*
X1413Y934D02*
X1462Y934D01*
X1335Y933D02*
X1384Y933D01*
X1413Y933D02*
X1463Y933D01*
X1335Y932D02*
X1384Y932D01*
X1414Y932D02*
X1463Y932D01*
X1334Y931D02*
X1384Y931D01*
X1414Y931D02*
X1463Y931D01*
X1334Y930D02*
X1383Y930D01*
X1414Y930D02*
X1463Y930D01*
X1334Y929D02*
X1383Y929D01*
X1414Y929D02*
X1463Y929D01*
X1334Y928D02*
X1383Y928D01*
X1414Y928D02*
X1463Y928D01*
X1334Y927D02*
X1383Y927D01*
X1414Y927D02*
X1463Y927D01*
X1334Y926D02*
X1383Y926D01*
X1414Y926D02*
X1463Y926D01*
X1334Y925D02*
X1383Y925D01*
X1414Y925D02*
X1463Y925D01*
X1334Y924D02*
X1384Y924D01*
X1414Y924D02*
X1463Y924D01*
X1335Y923D02*
X1384Y923D01*
X1413Y923D02*
X1463Y923D01*
X1335Y922D02*
X1384Y922D01*
X1413Y922D02*
X1463Y922D01*
X1335Y921D02*
X1385Y921D01*
X1413Y921D02*
X1462Y921D01*
X1335Y920D02*
X1385Y920D01*
X1412Y920D02*
X1462Y920D01*
X1335Y919D02*
X1386Y919D01*
X1412Y919D02*
X1462Y919D01*
X1336Y918D02*
X1387Y918D01*
X1411Y918D02*
X1462Y918D01*
X1336Y917D02*
X1388Y917D01*
X1410Y917D02*
X1461Y917D01*
X1336Y916D02*
X1389Y916D01*
X1409Y916D02*
X1461Y916D01*
X1337Y915D02*
X1390Y915D01*
X1407Y915D02*
X1461Y915D01*
X1337Y914D02*
X1392Y914D01*
X1406Y914D02*
X1460Y914D01*
X1337Y913D02*
X1394Y913D01*
X1403Y913D02*
X1460Y913D01*
X1338Y912D02*
X1459Y912D01*
X1338Y911D02*
X1459Y911D01*
X1339Y910D02*
X1458Y910D01*
X1340Y909D02*
X1458Y909D01*
X1340Y908D02*
X1457Y908D01*
X1341Y907D02*
X1456Y907D01*
X1342Y906D02*
X1456Y906D01*
X1342Y905D02*
X1455Y905D01*
X1343Y904D02*
X1454Y904D01*
X1344Y903D02*
X1453Y903D01*
X1345Y902D02*
X1452Y902D01*
X1346Y901D02*
X1451Y901D01*
X1348Y900D02*
X1450Y900D01*
X1349Y899D02*
X1448Y899D01*
X1351Y898D02*
X1447Y898D01*
X1352Y897D02*
X1445Y897D01*
X1354Y896D02*
X1443Y896D01*
X1357Y895D02*
X1441Y895D01*
X1360Y894D02*
X1438Y894D01*
X1364Y893D02*
X1433Y893D01*
X1363Y862D02*
X1434Y862D01*
X1359Y861D02*
X1438Y861D01*
X1356Y860D02*
X1441Y860D01*
X1354Y859D02*
X1443Y859D01*
X1352Y858D02*
X1445Y858D01*
X1350Y857D02*
X1447Y857D01*
X1349Y856D02*
X1448Y856D01*
X1348Y855D02*
X1450Y855D01*
X1346Y854D02*
X1451Y854D01*
X1345Y853D02*
X1452Y853D01*
X1344Y852D02*
X1453Y852D01*
X1343Y851D02*
X1454Y851D01*
X1342Y850D02*
X1455Y850D01*
X1342Y849D02*
X1456Y849D01*
X1341Y848D02*
X1456Y848D01*
X1340Y847D02*
X1457Y847D01*
X1340Y846D02*
X1458Y846D01*
X1339Y845D02*
X1458Y845D01*
X1338Y844D02*
X1459Y844D01*
X1338Y843D02*
X1459Y843D01*
X1337Y842D02*
X1394Y842D01*
X1403Y842D02*
X1460Y842D01*
X1337Y841D02*
X1391Y841D01*
X1406Y841D02*
X1460Y841D01*
X1337Y840D02*
X1390Y840D01*
X1408Y840D02*
X1461Y840D01*
X1336Y839D02*
X1389Y839D01*
X1409Y839D02*
X1461Y839D01*
X1336Y838D02*
X1387Y838D01*
X1410Y838D02*
X1461Y838D01*
X1336Y837D02*
X1387Y837D01*
X1411Y837D02*
X1462Y837D01*
X1335Y836D02*
X1386Y836D01*
X1412Y836D02*
X1462Y836D01*
X1335Y835D02*
X1385Y835D01*
X1412Y835D02*
X1462Y835D01*
X1335Y834D02*
X1385Y834D01*
X1413Y834D02*
X1462Y834D01*
X1335Y833D02*
X1384Y833D01*
X1413Y833D02*
X1463Y833D01*
X1335Y832D02*
X1384Y832D01*
X1414Y832D02*
X1463Y832D01*
X1334Y831D02*
X1384Y831D01*
X1414Y831D02*
X1463Y831D01*
X1334Y830D02*
X1383Y830D01*
X1414Y830D02*
X1463Y830D01*
X1334Y829D02*
X1383Y829D01*
X1414Y829D02*
X1463Y829D01*
X1334Y828D02*
X1383Y828D01*
X1414Y828D02*
X1463Y828D01*
X1334Y827D02*
X1383Y827D01*
X1414Y827D02*
X1463Y827D01*
X1334Y826D02*
X1383Y826D01*
X1414Y826D02*
X1463Y826D01*
X1334Y825D02*
X1383Y825D01*
X1414Y825D02*
X1463Y825D01*
X1334Y824D02*
X1384Y824D01*
X1414Y824D02*
X1463Y824D01*
X1335Y823D02*
X1384Y823D01*
X1413Y823D02*
X1463Y823D01*
X1335Y822D02*
X1384Y822D01*
X1413Y822D02*
X1463Y822D01*
X1335Y821D02*
X1385Y821D01*
X1413Y821D02*
X1462Y821D01*
X1335Y820D02*
X1385Y820D01*
X1412Y820D02*
X1462Y820D01*
X1335Y819D02*
X1386Y819D01*
X1412Y819D02*
X1462Y819D01*
X145Y818D02*
X152Y818D01*
X245Y818D02*
X252Y818D01*
X345Y818D02*
X352Y818D01*
X1336Y818D02*
X1387Y818D01*
X1411Y818D02*
X1462Y818D01*
X140Y817D02*
X157Y817D01*
X240Y817D02*
X257Y817D01*
X340Y817D02*
X357Y817D01*
X1336Y817D02*
X1388Y817D01*
X1410Y817D02*
X1461Y817D01*
X137Y816D02*
X160Y816D01*
X237Y816D02*
X260Y816D01*
X337Y816D02*
X360Y816D01*
X1336Y816D02*
X1389Y816D01*
X1409Y816D02*
X1461Y816D01*
X134Y815D02*
X162Y815D01*
X234Y815D02*
X262Y815D01*
X334Y815D02*
X362Y815D01*
X1337Y815D02*
X1390Y815D01*
X1407Y815D02*
X1461Y815D01*
X132Y814D02*
X164Y814D01*
X232Y814D02*
X264Y814D01*
X332Y814D02*
X364Y814D01*
X1337Y814D02*
X1392Y814D01*
X1406Y814D02*
X1460Y814D01*
X131Y813D02*
X166Y813D01*
X230Y813D02*
X266Y813D01*
X330Y813D02*
X366Y813D01*
X1338Y813D02*
X1394Y813D01*
X1403Y813D02*
X1460Y813D01*
X129Y812D02*
X168Y812D01*
X229Y812D02*
X268Y812D01*
X329Y812D02*
X368Y812D01*
X1338Y812D02*
X1459Y812D01*
X128Y811D02*
X169Y811D01*
X228Y811D02*
X269Y811D01*
X327Y811D02*
X369Y811D01*
X1338Y811D02*
X1459Y811D01*
X126Y810D02*
X170Y810D01*
X226Y810D02*
X270Y810D01*
X326Y810D02*
X370Y810D01*
X1339Y810D02*
X1458Y810D01*
X125Y809D02*
X172Y809D01*
X225Y809D02*
X271Y809D01*
X325Y809D02*
X371Y809D01*
X1340Y809D02*
X1458Y809D01*
X124Y808D02*
X173Y808D01*
X224Y808D02*
X273Y808D01*
X324Y808D02*
X373Y808D01*
X1340Y808D02*
X1457Y808D01*
X123Y807D02*
X174Y807D01*
X223Y807D02*
X273Y807D01*
X323Y807D02*
X373Y807D01*
X1341Y807D02*
X1456Y807D01*
X122Y806D02*
X174Y806D01*
X222Y806D02*
X274Y806D01*
X322Y806D02*
X374Y806D01*
X1342Y806D02*
X1456Y806D01*
X121Y805D02*
X175Y805D01*
X221Y805D02*
X275Y805D01*
X321Y805D02*
X375Y805D01*
X1342Y805D02*
X1455Y805D01*
X121Y804D02*
X176Y804D01*
X221Y804D02*
X276Y804D01*
X321Y804D02*
X376Y804D01*
X1343Y804D02*
X1454Y804D01*
X120Y803D02*
X177Y803D01*
X220Y803D02*
X277Y803D01*
X320Y803D02*
X377Y803D01*
X1344Y803D02*
X1453Y803D01*
X119Y802D02*
X177Y802D01*
X219Y802D02*
X277Y802D01*
X319Y802D02*
X377Y802D01*
X1345Y802D02*
X1452Y802D01*
X119Y801D02*
X178Y801D01*
X219Y801D02*
X278Y801D01*
X319Y801D02*
X378Y801D01*
X1346Y801D02*
X1451Y801D01*
X118Y800D02*
X178Y800D01*
X218Y800D02*
X278Y800D01*
X318Y800D02*
X378Y800D01*
X1348Y800D02*
X1450Y800D01*
X118Y799D02*
X179Y799D01*
X218Y799D02*
X279Y799D01*
X318Y799D02*
X379Y799D01*
X1349Y799D02*
X1448Y799D01*
X117Y798D02*
X179Y798D01*
X217Y798D02*
X279Y798D01*
X317Y798D02*
X379Y798D01*
X1351Y798D02*
X1447Y798D01*
X117Y797D02*
X180Y797D01*
X217Y797D02*
X280Y797D01*
X317Y797D02*
X380Y797D01*
X1352Y797D02*
X1445Y797D01*
X116Y796D02*
X180Y796D01*
X216Y796D02*
X280Y796D01*
X316Y796D02*
X380Y796D01*
X1354Y796D02*
X1443Y796D01*
X116Y795D02*
X181Y795D01*
X216Y795D02*
X281Y795D01*
X316Y795D02*
X381Y795D01*
X1357Y795D02*
X1441Y795D01*
X116Y794D02*
X181Y794D01*
X216Y794D02*
X281Y794D01*
X316Y794D02*
X381Y794D01*
X1360Y794D02*
X1438Y794D01*
X115Y793D02*
X181Y793D01*
X215Y793D02*
X281Y793D01*
X315Y793D02*
X381Y793D01*
X1364Y793D02*
X1433Y793D01*
X115Y792D02*
X182Y792D01*
X215Y792D02*
X282Y792D01*
X315Y792D02*
X382Y792D01*
X115Y791D02*
X182Y791D01*
X215Y791D02*
X282Y791D01*
X315Y791D02*
X382Y791D01*
X115Y790D02*
X182Y790D01*
X215Y790D02*
X282Y790D01*
X314Y790D02*
X382Y790D01*
X114Y789D02*
X182Y789D01*
X214Y789D02*
X282Y789D01*
X314Y789D02*
X382Y789D01*
X114Y788D02*
X182Y788D01*
X214Y788D02*
X282Y788D01*
X314Y788D02*
X382Y788D01*
X114Y787D02*
X183Y787D01*
X214Y787D02*
X283Y787D01*
X314Y787D02*
X383Y787D01*
X114Y786D02*
X183Y786D01*
X214Y786D02*
X283Y786D01*
X314Y786D02*
X383Y786D01*
X114Y785D02*
X183Y785D01*
X214Y785D02*
X283Y785D01*
X314Y785D02*
X383Y785D01*
X114Y784D02*
X183Y784D01*
X214Y784D02*
X283Y784D01*
X314Y784D02*
X383Y784D01*
X114Y783D02*
X183Y783D01*
X214Y783D02*
X283Y783D01*
X314Y783D02*
X383Y783D01*
X114Y782D02*
X183Y782D01*
X214Y782D02*
X283Y782D01*
X314Y782D02*
X383Y782D01*
X114Y781D02*
X183Y781D01*
X214Y781D02*
X283Y781D01*
X314Y781D02*
X383Y781D01*
X114Y780D02*
X183Y780D01*
X214Y780D02*
X283Y780D01*
X314Y780D02*
X383Y780D01*
X114Y779D02*
X183Y779D01*
X214Y779D02*
X283Y779D01*
X314Y779D02*
X383Y779D01*
X114Y778D02*
X183Y778D01*
X214Y778D02*
X283Y778D01*
X314Y778D02*
X383Y778D01*
X114Y777D02*
X183Y777D01*
X214Y777D02*
X283Y777D01*
X314Y777D02*
X383Y777D01*
X114Y776D02*
X183Y776D01*
X214Y776D02*
X283Y776D01*
X314Y776D02*
X383Y776D01*
X114Y775D02*
X183Y775D01*
X214Y775D02*
X283Y775D01*
X314Y775D02*
X383Y775D01*
X114Y774D02*
X183Y774D01*
X214Y774D02*
X283Y774D01*
X314Y774D02*
X383Y774D01*
X114Y773D02*
X183Y773D01*
X214Y773D02*
X283Y773D01*
X314Y773D02*
X383Y773D01*
X114Y772D02*
X183Y772D01*
X214Y772D02*
X283Y772D01*
X314Y772D02*
X383Y772D01*
X114Y771D02*
X183Y771D01*
X214Y771D02*
X283Y771D01*
X314Y771D02*
X383Y771D01*
X114Y770D02*
X183Y770D01*
X214Y770D02*
X283Y770D01*
X314Y770D02*
X383Y770D01*
X114Y769D02*
X183Y769D01*
X214Y769D02*
X283Y769D01*
X314Y769D02*
X383Y769D01*
X114Y768D02*
X145Y768D01*
X152Y768D02*
X183Y768D01*
X214Y768D02*
X245Y768D01*
X252Y768D02*
X283Y768D01*
X314Y768D02*
X345Y768D01*
X352Y768D02*
X383Y768D01*
X114Y767D02*
X142Y767D01*
X155Y767D02*
X183Y767D01*
X214Y767D02*
X242Y767D01*
X255Y767D02*
X283Y767D01*
X314Y767D02*
X342Y767D01*
X355Y767D02*
X383Y767D01*
X114Y766D02*
X140Y766D01*
X157Y766D02*
X183Y766D01*
X214Y766D02*
X240Y766D01*
X257Y766D02*
X283Y766D01*
X314Y766D02*
X340Y766D01*
X357Y766D02*
X383Y766D01*
X114Y765D02*
X139Y765D01*
X158Y765D02*
X183Y765D01*
X214Y765D02*
X238Y765D01*
X258Y765D02*
X283Y765D01*
X314Y765D02*
X338Y765D01*
X358Y765D02*
X383Y765D01*
X114Y764D02*
X137Y764D01*
X159Y764D02*
X183Y764D01*
X214Y764D02*
X237Y764D01*
X259Y764D02*
X283Y764D01*
X314Y764D02*
X337Y764D01*
X359Y764D02*
X383Y764D01*
X114Y763D02*
X136Y763D01*
X160Y763D02*
X183Y763D01*
X214Y763D02*
X236Y763D01*
X260Y763D02*
X283Y763D01*
X314Y763D02*
X336Y763D01*
X360Y763D02*
X383Y763D01*
X114Y762D02*
X136Y762D01*
X161Y762D02*
X183Y762D01*
X214Y762D02*
X236Y762D01*
X261Y762D02*
X283Y762D01*
X314Y762D02*
X336Y762D01*
X361Y762D02*
X383Y762D01*
X114Y761D02*
X135Y761D01*
X162Y761D02*
X183Y761D01*
X214Y761D02*
X235Y761D01*
X262Y761D02*
X283Y761D01*
X314Y761D02*
X335Y761D01*
X362Y761D02*
X383Y761D01*
X114Y760D02*
X134Y760D01*
X162Y760D02*
X183Y760D01*
X214Y760D02*
X234Y760D01*
X262Y760D02*
X283Y760D01*
X314Y760D02*
X334Y760D01*
X362Y760D02*
X383Y760D01*
X114Y759D02*
X134Y759D01*
X163Y759D02*
X183Y759D01*
X214Y759D02*
X234Y759D01*
X263Y759D02*
X283Y759D01*
X314Y759D02*
X334Y759D01*
X363Y759D02*
X383Y759D01*
X114Y758D02*
X134Y758D01*
X163Y758D02*
X183Y758D01*
X214Y758D02*
X234Y758D01*
X263Y758D02*
X283Y758D01*
X314Y758D02*
X333Y758D01*
X363Y758D02*
X383Y758D01*
X114Y757D02*
X133Y757D01*
X163Y757D02*
X183Y757D01*
X214Y757D02*
X233Y757D01*
X263Y757D02*
X283Y757D01*
X314Y757D02*
X333Y757D01*
X363Y757D02*
X383Y757D01*
X114Y756D02*
X133Y756D01*
X164Y756D02*
X183Y756D01*
X214Y756D02*
X233Y756D01*
X264Y756D02*
X283Y756D01*
X314Y756D02*
X333Y756D01*
X364Y756D02*
X383Y756D01*
X114Y755D02*
X133Y755D01*
X164Y755D02*
X183Y755D01*
X214Y755D02*
X233Y755D01*
X264Y755D02*
X283Y755D01*
X314Y755D02*
X333Y755D01*
X364Y755D02*
X383Y755D01*
X114Y754D02*
X133Y754D01*
X164Y754D02*
X183Y754D01*
X214Y754D02*
X233Y754D01*
X264Y754D02*
X283Y754D01*
X314Y754D02*
X333Y754D01*
X364Y754D02*
X383Y754D01*
X114Y753D02*
X133Y753D01*
X164Y753D02*
X183Y753D01*
X214Y753D02*
X233Y753D01*
X264Y753D02*
X283Y753D01*
X314Y753D02*
X333Y753D01*
X364Y753D02*
X383Y753D01*
X114Y752D02*
X133Y752D01*
X164Y752D02*
X183Y752D01*
X214Y752D02*
X233Y752D01*
X264Y752D02*
X283Y752D01*
X314Y752D02*
X333Y752D01*
X364Y752D02*
X383Y752D01*
X114Y751D02*
X133Y751D01*
X164Y751D02*
X183Y751D01*
X214Y751D02*
X233Y751D01*
X264Y751D02*
X283Y751D01*
X314Y751D02*
X333Y751D01*
X364Y751D02*
X383Y751D01*
X114Y750D02*
X133Y750D01*
X163Y750D02*
X183Y750D01*
X214Y750D02*
X233Y750D01*
X263Y750D02*
X283Y750D01*
X314Y750D02*
X333Y750D01*
X363Y750D02*
X383Y750D01*
X114Y749D02*
X133Y749D01*
X163Y749D02*
X183Y749D01*
X214Y749D02*
X233Y749D01*
X263Y749D02*
X283Y749D01*
X314Y749D02*
X333Y749D01*
X363Y749D02*
X383Y749D01*
X114Y748D02*
X134Y748D01*
X163Y748D02*
X183Y748D01*
X214Y748D02*
X234Y748D01*
X263Y748D02*
X283Y748D01*
X314Y748D02*
X334Y748D01*
X363Y748D02*
X383Y748D01*
X114Y747D02*
X134Y747D01*
X162Y747D02*
X183Y747D01*
X214Y747D02*
X234Y747D01*
X262Y747D02*
X283Y747D01*
X314Y747D02*
X334Y747D01*
X362Y747D02*
X383Y747D01*
X114Y746D02*
X135Y746D01*
X162Y746D02*
X183Y746D01*
X214Y746D02*
X235Y746D01*
X262Y746D02*
X283Y746D01*
X314Y746D02*
X335Y746D01*
X362Y746D02*
X383Y746D01*
X114Y745D02*
X135Y745D01*
X161Y745D02*
X183Y745D01*
X214Y745D02*
X235Y745D01*
X261Y745D02*
X283Y745D01*
X314Y745D02*
X335Y745D01*
X361Y745D02*
X383Y745D01*
X114Y744D02*
X136Y744D01*
X161Y744D02*
X183Y744D01*
X214Y744D02*
X236Y744D01*
X261Y744D02*
X283Y744D01*
X314Y744D02*
X336Y744D01*
X360Y744D02*
X383Y744D01*
X114Y743D02*
X137Y743D01*
X160Y743D02*
X183Y743D01*
X214Y743D02*
X237Y743D01*
X260Y743D02*
X283Y743D01*
X314Y743D02*
X337Y743D01*
X360Y743D02*
X383Y743D01*
X114Y742D02*
X138Y742D01*
X159Y742D02*
X183Y742D01*
X214Y742D02*
X238Y742D01*
X259Y742D02*
X283Y742D01*
X314Y742D02*
X338Y742D01*
X359Y742D02*
X383Y742D01*
X114Y741D02*
X139Y741D01*
X157Y741D02*
X183Y741D01*
X214Y741D02*
X239Y741D01*
X257Y741D02*
X283Y741D01*
X314Y741D02*
X339Y741D01*
X357Y741D02*
X383Y741D01*
X114Y740D02*
X141Y740D01*
X156Y740D02*
X183Y740D01*
X214Y740D02*
X241Y740D01*
X256Y740D02*
X283Y740D01*
X314Y740D02*
X341Y740D01*
X356Y740D02*
X383Y740D01*
X114Y739D02*
X143Y739D01*
X153Y739D02*
X183Y739D01*
X214Y739D02*
X243Y739D01*
X253Y739D02*
X283Y739D01*
X314Y739D02*
X343Y739D01*
X353Y739D02*
X383Y739D01*
X114Y738D02*
X183Y738D01*
X214Y738D02*
X283Y738D01*
X314Y738D02*
X383Y738D01*
X114Y737D02*
X183Y737D01*
X214Y737D02*
X283Y737D01*
X314Y737D02*
X383Y737D01*
X114Y736D02*
X183Y736D01*
X214Y736D02*
X283Y736D01*
X314Y736D02*
X383Y736D01*
X114Y735D02*
X183Y735D01*
X214Y735D02*
X283Y735D01*
X314Y735D02*
X383Y735D01*
X114Y734D02*
X183Y734D01*
X214Y734D02*
X283Y734D01*
X314Y734D02*
X383Y734D01*
X114Y733D02*
X183Y733D01*
X214Y733D02*
X283Y733D01*
X314Y733D02*
X383Y733D01*
X114Y732D02*
X183Y732D01*
X214Y732D02*
X283Y732D01*
X314Y732D02*
X383Y732D01*
X114Y731D02*
X183Y731D01*
X214Y731D02*
X283Y731D01*
X314Y731D02*
X383Y731D01*
X114Y730D02*
X183Y730D01*
X214Y730D02*
X283Y730D01*
X314Y730D02*
X383Y730D01*
X114Y729D02*
X183Y729D01*
X214Y729D02*
X283Y729D01*
X314Y729D02*
X383Y729D01*
X114Y728D02*
X183Y728D01*
X214Y728D02*
X283Y728D01*
X314Y728D02*
X383Y728D01*
X114Y727D02*
X183Y727D01*
X214Y727D02*
X283Y727D01*
X314Y727D02*
X383Y727D01*
X114Y726D02*
X183Y726D01*
X214Y726D02*
X283Y726D01*
X314Y726D02*
X383Y726D01*
X114Y725D02*
X183Y725D01*
X214Y725D02*
X283Y725D01*
X314Y725D02*
X383Y725D01*
X114Y724D02*
X183Y724D01*
X214Y724D02*
X283Y724D01*
X314Y724D02*
X383Y724D01*
X114Y723D02*
X183Y723D01*
X214Y723D02*
X283Y723D01*
X314Y723D02*
X383Y723D01*
X114Y722D02*
X183Y722D01*
X214Y722D02*
X283Y722D01*
X314Y722D02*
X383Y722D01*
X114Y721D02*
X183Y721D01*
X214Y721D02*
X283Y721D01*
X314Y721D02*
X383Y721D01*
X114Y720D02*
X183Y720D01*
X214Y720D02*
X283Y720D01*
X314Y720D02*
X383Y720D01*
X114Y719D02*
X183Y719D01*
X214Y719D02*
X282Y719D01*
X314Y719D02*
X382Y719D01*
X114Y718D02*
X182Y718D01*
X214Y718D02*
X282Y718D01*
X314Y718D02*
X382Y718D01*
X114Y717D02*
X182Y717D01*
X214Y717D02*
X282Y717D01*
X314Y717D02*
X382Y717D01*
X115Y716D02*
X182Y716D01*
X215Y716D02*
X282Y716D01*
X315Y716D02*
X382Y716D01*
X115Y715D02*
X182Y715D01*
X215Y715D02*
X282Y715D01*
X315Y715D02*
X382Y715D01*
X115Y714D02*
X181Y714D01*
X215Y714D02*
X281Y714D01*
X315Y714D02*
X381Y714D01*
X116Y713D02*
X181Y713D01*
X215Y713D02*
X281Y713D01*
X315Y713D02*
X381Y713D01*
X116Y712D02*
X181Y712D01*
X216Y712D02*
X281Y712D01*
X316Y712D02*
X381Y712D01*
X116Y711D02*
X180Y711D01*
X216Y711D02*
X280Y711D01*
X316Y711D02*
X380Y711D01*
X117Y710D02*
X180Y710D01*
X217Y710D02*
X280Y710D01*
X317Y710D02*
X380Y710D01*
X117Y709D02*
X180Y709D01*
X217Y709D02*
X280Y709D01*
X317Y709D02*
X380Y709D01*
X118Y708D02*
X179Y708D01*
X217Y708D02*
X279Y708D01*
X317Y708D02*
X379Y708D01*
X118Y707D02*
X179Y707D01*
X218Y707D02*
X279Y707D01*
X318Y707D02*
X379Y707D01*
X119Y706D02*
X178Y706D01*
X219Y706D02*
X278Y706D01*
X318Y706D02*
X378Y706D01*
X119Y705D02*
X178Y705D01*
X219Y705D02*
X277Y705D01*
X319Y705D02*
X377Y705D01*
X120Y704D02*
X177Y704D01*
X220Y704D02*
X277Y704D01*
X320Y704D02*
X377Y704D01*
X120Y703D02*
X176Y703D01*
X220Y703D02*
X276Y703D01*
X320Y703D02*
X376Y703D01*
X121Y702D02*
X176Y702D01*
X221Y702D02*
X275Y702D01*
X321Y702D02*
X375Y702D01*
X122Y701D02*
X175Y701D01*
X222Y701D02*
X275Y701D01*
X322Y701D02*
X375Y701D01*
X123Y700D02*
X174Y700D01*
X223Y700D02*
X274Y700D01*
X323Y700D02*
X374Y700D01*
X124Y699D02*
X173Y699D01*
X224Y699D02*
X273Y699D01*
X324Y699D02*
X373Y699D01*
X125Y698D02*
X172Y698D01*
X225Y698D02*
X272Y698D01*
X325Y698D02*
X372Y698D01*
X126Y697D02*
X171Y697D01*
X226Y697D02*
X271Y697D01*
X326Y697D02*
X371Y697D01*
X127Y696D02*
X170Y696D01*
X227Y696D02*
X270Y696D01*
X327Y696D02*
X370Y696D01*
X128Y695D02*
X168Y695D01*
X228Y695D02*
X268Y695D01*
X328Y695D02*
X368Y695D01*
X130Y694D02*
X167Y694D01*
X230Y694D02*
X267Y694D01*
X330Y694D02*
X367Y694D01*
X132Y693D02*
X165Y693D01*
X232Y693D02*
X265Y693D01*
X331Y693D02*
X365Y693D01*
X134Y692D02*
X163Y692D01*
X233Y692D02*
X263Y692D01*
X333Y692D02*
X363Y692D01*
X136Y691D02*
X161Y691D01*
X236Y691D02*
X261Y691D01*
X336Y691D02*
X361Y691D01*
X138Y690D02*
X158Y690D01*
X238Y690D02*
X258Y690D01*
X338Y690D02*
X358Y690D01*
X142Y689D02*
X154Y689D01*
X242Y689D02*
X254Y689D01*
X342Y689D02*
X354Y689D01*
D02*
G04 End of Mask1*
M02*