G04 MADE WITH FRITZING*
G04 WWW.FRITZING.ORG*
G04 DOUBLE SIDED*
G04 HOLES PLATED*
G04 CONTOUR ON CENTER OF CONTOUR VECTOR*
%ASAXBY*%
%FSLAX23Y23*%
%MOIN*%
%OFA0B0*%
%SFA1.0B1.0*%
%ADD10C,0.077778*%
%ADD11C,0.075000*%
%ADD12C,0.080000*%
%ADD13C,0.140000*%
%ADD14C,0.060000*%
%ADD15C,0.062992*%
%ADD16C,0.070000*%
%ADD17C,0.082000*%
%ADD18C,0.039370*%
%ADD19C,0.078000*%
%ADD20R,0.080000X0.080000*%
%ADD21R,0.075000X0.075000*%
%ADD22R,0.062992X0.062992*%
%ADD23R,0.082000X0.082000*%
%ADD24C,0.024000*%
%ADD25R,0.001000X0.001000*%
%LNCOPPER1*%
G90*
G70*
G54D10*
X150Y2051D03*
X150Y1951D03*
X150Y1851D03*
X150Y1751D03*
X150Y1651D03*
X150Y1551D03*
X150Y1451D03*
X150Y1351D03*
X1050Y1351D03*
X1050Y1451D03*
X1050Y1551D03*
X1050Y1651D03*
X1050Y1751D03*
X1050Y1851D03*
X1050Y1951D03*
X1050Y2051D03*
G54D11*
X1100Y951D03*
X700Y951D03*
X1100Y851D03*
X700Y851D03*
G54D12*
X999Y402D03*
X899Y402D03*
X799Y402D03*
X699Y402D03*
X599Y402D03*
X499Y402D03*
X399Y402D03*
G54D13*
X1610Y1921D03*
X1850Y1921D03*
X1730Y2111D03*
G54D14*
X1400Y1026D03*
X1400Y926D03*
X1400Y826D03*
X1400Y1026D03*
X1400Y926D03*
X1400Y826D03*
G54D11*
X1200Y1326D03*
X1300Y1326D03*
X1200Y676D03*
X1300Y676D03*
X1450Y551D03*
X1450Y151D03*
G54D15*
X1298Y301D03*
X1200Y301D03*
G54D16*
X1200Y476D03*
X1300Y476D03*
G54D14*
X149Y752D03*
X249Y752D03*
X349Y752D03*
X149Y752D03*
X249Y752D03*
X349Y752D03*
G54D11*
X475Y1151D03*
X875Y1151D03*
G54D17*
X475Y601D03*
X177Y601D03*
G54D18*
X749Y502D03*
G54D12*
X199Y402D03*
X99Y402D03*
G54D19*
X1500Y1326D03*
X1500Y1426D03*
X1500Y1526D03*
X1500Y1626D03*
G54D12*
X1730Y2336D03*
X1592Y2336D03*
G54D20*
X999Y402D03*
G54D21*
X1200Y1326D03*
X1200Y676D03*
G54D22*
X1298Y301D03*
G54D23*
X476Y601D03*
G54D20*
X199Y402D03*
X1730Y2336D03*
G54D24*
X1600Y1426D02*
X1600Y1227D01*
D02*
X1600Y1227D02*
X1200Y1227D01*
D02*
X1530Y1426D02*
X1600Y1426D01*
D02*
X1200Y1227D02*
X1200Y1298D01*
D02*
X1173Y301D02*
X900Y303D01*
D02*
X900Y303D02*
X899Y401D01*
D02*
X199Y502D02*
X349Y501D01*
D02*
X349Y501D02*
X349Y602D01*
D02*
X199Y433D02*
X199Y502D01*
D02*
X349Y602D02*
X443Y602D01*
D02*
X1300Y151D02*
X1421Y151D01*
D02*
X899Y401D02*
X897Y371D01*
D02*
X1298Y274D02*
X1300Y151D01*
D02*
X599Y653D02*
X599Y1750D01*
D02*
X699Y651D02*
X599Y653D01*
D02*
X550Y601D02*
X550Y1853D01*
D02*
X600Y601D02*
X550Y601D01*
D02*
X699Y433D02*
X699Y651D01*
D02*
X599Y1750D02*
X1021Y1751D01*
D02*
X599Y433D02*
X600Y601D01*
D02*
X550Y1853D02*
X1021Y1851D01*
D02*
X49Y1151D02*
X49Y1452D01*
D02*
X49Y751D02*
X49Y1151D01*
D02*
X49Y1452D02*
X121Y1451D01*
D02*
X118Y752D02*
X49Y751D01*
D02*
X399Y1652D02*
X399Y2051D01*
D02*
X399Y2051D02*
X799Y2051D01*
D02*
X799Y2051D02*
X799Y2251D01*
D02*
X799Y2251D02*
X1251Y2251D01*
D02*
X1251Y2251D02*
X1251Y1626D01*
D02*
X1251Y1626D02*
X1470Y1626D01*
D02*
X301Y1550D02*
X301Y1602D01*
D02*
X301Y1602D02*
X448Y1602D01*
D02*
X448Y1602D02*
X448Y2002D01*
D02*
X448Y2002D02*
X851Y2002D01*
D02*
X851Y2002D02*
X851Y2202D01*
D02*
X851Y2202D02*
X1198Y2202D01*
D02*
X1198Y2202D02*
X1198Y1526D01*
D02*
X1198Y1526D02*
X1470Y1526D01*
D02*
X179Y1651D02*
X399Y1652D01*
D02*
X179Y1551D02*
X301Y1550D01*
D02*
X350Y1550D02*
X501Y1550D01*
D02*
X501Y1550D02*
X501Y1953D01*
D02*
X350Y1350D02*
X350Y1550D01*
D02*
X501Y1953D02*
X900Y1953D01*
D02*
X900Y1953D02*
X900Y2152D01*
D02*
X900Y2152D02*
X1149Y2152D01*
D02*
X1149Y2152D02*
X1149Y1453D01*
D02*
X1149Y1453D02*
X1401Y1453D01*
D02*
X1401Y1453D02*
X1401Y1326D01*
D02*
X1401Y1326D02*
X1470Y1326D01*
D02*
X179Y1351D02*
X350Y1350D01*
D02*
X750Y752D02*
X699Y752D01*
D02*
X699Y752D02*
X700Y823D01*
D02*
X749Y521D02*
X750Y752D01*
D02*
X799Y433D02*
X799Y951D01*
D02*
X799Y951D02*
X728Y951D01*
D02*
X1300Y552D02*
X1300Y502D01*
D02*
X1100Y552D02*
X1299Y552D01*
D02*
X1100Y823D02*
X1100Y552D01*
D02*
X1850Y2111D02*
X1850Y1982D01*
D02*
X1791Y2111D02*
X1850Y2111D01*
D02*
X49Y1151D02*
X446Y1151D01*
D02*
X1730Y2172D02*
X1730Y2305D01*
D02*
X1549Y1921D02*
X1592Y1921D01*
D02*
X1592Y1921D02*
X1592Y2305D01*
G54D25*
X1364Y1057D02*
X1433Y1057D01*
X1360Y1056D02*
X1437Y1056D01*
X1357Y1055D02*
X1440Y1055D01*
X1355Y1054D02*
X1442Y1054D01*
X1353Y1053D02*
X1444Y1053D01*
X1352Y1052D02*
X1445Y1052D01*
X1351Y1051D02*
X1447Y1051D01*
X1349Y1050D02*
X1448Y1050D01*
X1348Y1049D02*
X1449Y1049D01*
X1347Y1048D02*
X1450Y1048D01*
X1346Y1047D02*
X1394Y1047D01*
X1403Y1047D02*
X1451Y1047D01*
X1346Y1046D02*
X1391Y1046D01*
X1407Y1046D02*
X1452Y1046D01*
X1345Y1045D02*
X1389Y1045D01*
X1409Y1045D02*
X1452Y1045D01*
X1344Y1044D02*
X1387Y1044D01*
X1410Y1044D02*
X1453Y1044D01*
X1344Y1043D02*
X1386Y1043D01*
X1412Y1043D02*
X1454Y1043D01*
X1343Y1042D02*
X1385Y1042D01*
X1413Y1042D02*
X1454Y1042D01*
X1342Y1041D02*
X1384Y1041D01*
X1414Y1041D02*
X1455Y1041D01*
X1342Y1040D02*
X1383Y1040D01*
X1415Y1040D02*
X1455Y1040D01*
X1342Y1039D02*
X1382Y1039D01*
X1415Y1039D02*
X1456Y1039D01*
X1341Y1038D02*
X1381Y1038D01*
X1416Y1038D02*
X1456Y1038D01*
X1341Y1037D02*
X1381Y1037D01*
X1417Y1037D02*
X1457Y1037D01*
X1340Y1036D02*
X1380Y1036D01*
X1417Y1036D02*
X1457Y1036D01*
X1340Y1035D02*
X1380Y1035D01*
X1418Y1035D02*
X1457Y1035D01*
X1340Y1034D02*
X1379Y1034D01*
X1418Y1034D02*
X1457Y1034D01*
X1340Y1033D02*
X1379Y1033D01*
X1418Y1033D02*
X1458Y1033D01*
X1340Y1032D02*
X1379Y1032D01*
X1419Y1032D02*
X1458Y1032D01*
X1339Y1031D02*
X1379Y1031D01*
X1419Y1031D02*
X1458Y1031D01*
X1339Y1030D02*
X1378Y1030D01*
X1419Y1030D02*
X1458Y1030D01*
X1339Y1029D02*
X1378Y1029D01*
X1419Y1029D02*
X1458Y1029D01*
X1339Y1028D02*
X1378Y1028D01*
X1419Y1028D02*
X1458Y1028D01*
X1339Y1027D02*
X1378Y1027D01*
X1419Y1027D02*
X1458Y1027D01*
X1339Y1026D02*
X1378Y1026D01*
X1419Y1026D02*
X1458Y1026D01*
X1339Y1025D02*
X1378Y1025D01*
X1419Y1025D02*
X1458Y1025D01*
X1339Y1024D02*
X1379Y1024D01*
X1419Y1024D02*
X1458Y1024D01*
X1340Y1023D02*
X1379Y1023D01*
X1419Y1023D02*
X1458Y1023D01*
X1340Y1022D02*
X1379Y1022D01*
X1418Y1022D02*
X1458Y1022D01*
X1340Y1021D02*
X1379Y1021D01*
X1418Y1021D02*
X1457Y1021D01*
X1340Y1020D02*
X1380Y1020D01*
X1418Y1020D02*
X1457Y1020D01*
X1340Y1019D02*
X1380Y1019D01*
X1417Y1019D02*
X1457Y1019D01*
X1341Y1018D02*
X1381Y1018D01*
X1417Y1018D02*
X1457Y1018D01*
X1341Y1017D02*
X1381Y1017D01*
X1416Y1017D02*
X1456Y1017D01*
X1341Y1016D02*
X1382Y1016D01*
X1415Y1016D02*
X1456Y1016D01*
X1342Y1015D02*
X1383Y1015D01*
X1415Y1015D02*
X1455Y1015D01*
X1342Y1014D02*
X1384Y1014D01*
X1414Y1014D02*
X1455Y1014D01*
X1343Y1013D02*
X1384Y1013D01*
X1413Y1013D02*
X1454Y1013D01*
X1344Y1012D02*
X1386Y1012D01*
X1412Y1012D02*
X1454Y1012D01*
X1344Y1011D02*
X1387Y1011D01*
X1410Y1011D02*
X1453Y1011D01*
X1345Y1010D02*
X1389Y1010D01*
X1409Y1010D02*
X1452Y1010D01*
X1346Y1009D02*
X1391Y1009D01*
X1407Y1009D02*
X1452Y1009D01*
X1346Y1008D02*
X1394Y1008D01*
X1403Y1008D02*
X1451Y1008D01*
X1347Y1007D02*
X1450Y1007D01*
X1348Y1006D02*
X1449Y1006D01*
X1349Y1005D02*
X1448Y1005D01*
X1351Y1004D02*
X1447Y1004D01*
X1352Y1003D02*
X1445Y1003D01*
X1353Y1002D02*
X1444Y1002D01*
X1355Y1001D02*
X1442Y1001D01*
X1357Y1000D02*
X1440Y1000D01*
X1360Y999D02*
X1438Y999D01*
X1364Y998D02*
X1434Y998D01*
X1364Y957D02*
X1434Y957D01*
X1360Y956D02*
X1438Y956D01*
X1357Y955D02*
X1440Y955D01*
X1355Y954D02*
X1442Y954D01*
X1353Y953D02*
X1444Y953D01*
X1352Y952D02*
X1445Y952D01*
X1351Y951D02*
X1447Y951D01*
X1349Y950D02*
X1448Y950D01*
X1348Y949D02*
X1449Y949D01*
X1347Y948D02*
X1450Y948D01*
X1346Y947D02*
X1394Y947D01*
X1404Y947D02*
X1451Y947D01*
X1346Y946D02*
X1391Y946D01*
X1407Y946D02*
X1452Y946D01*
X1345Y945D02*
X1389Y945D01*
X1409Y945D02*
X1453Y945D01*
X1344Y944D02*
X1387Y944D01*
X1410Y944D02*
X1453Y944D01*
X1344Y943D02*
X1386Y943D01*
X1412Y943D02*
X1454Y943D01*
X1343Y942D02*
X1384Y942D01*
X1413Y942D02*
X1454Y942D01*
X1342Y941D02*
X1384Y941D01*
X1414Y941D02*
X1455Y941D01*
X1342Y940D02*
X1383Y940D01*
X1415Y940D02*
X1455Y940D01*
X1341Y939D02*
X1382Y939D01*
X1416Y939D02*
X1456Y939D01*
X1341Y938D02*
X1381Y938D01*
X1416Y938D02*
X1456Y938D01*
X1341Y937D02*
X1381Y937D01*
X1417Y937D02*
X1457Y937D01*
X1340Y936D02*
X1380Y936D01*
X1417Y936D02*
X1457Y936D01*
X1340Y935D02*
X1380Y935D01*
X1418Y935D02*
X1457Y935D01*
X1340Y934D02*
X1379Y934D01*
X1418Y934D02*
X1457Y934D01*
X1340Y933D02*
X1379Y933D01*
X1418Y933D02*
X1458Y933D01*
X1340Y932D02*
X1379Y932D01*
X1419Y932D02*
X1458Y932D01*
X1339Y931D02*
X1379Y931D01*
X1419Y931D02*
X1458Y931D01*
X1339Y930D02*
X1378Y930D01*
X1419Y930D02*
X1458Y930D01*
X1339Y929D02*
X1378Y929D01*
X1419Y929D02*
X1458Y929D01*
X1339Y928D02*
X1378Y928D01*
X1419Y928D02*
X1458Y928D01*
X1339Y927D02*
X1378Y927D01*
X1419Y927D02*
X1458Y927D01*
X1339Y926D02*
X1378Y926D01*
X1419Y926D02*
X1458Y926D01*
X1339Y925D02*
X1378Y925D01*
X1419Y925D02*
X1458Y925D01*
X1339Y924D02*
X1379Y924D01*
X1419Y924D02*
X1458Y924D01*
X1340Y923D02*
X1379Y923D01*
X1419Y923D02*
X1458Y923D01*
X1340Y922D02*
X1379Y922D01*
X1418Y922D02*
X1458Y922D01*
X1340Y921D02*
X1379Y921D01*
X1418Y921D02*
X1457Y921D01*
X1340Y920D02*
X1380Y920D01*
X1418Y920D02*
X1457Y920D01*
X1340Y919D02*
X1380Y919D01*
X1417Y919D02*
X1457Y919D01*
X1341Y918D02*
X1381Y918D01*
X1417Y918D02*
X1457Y918D01*
X1341Y917D02*
X1381Y917D01*
X1416Y917D02*
X1456Y917D01*
X1342Y916D02*
X1382Y916D01*
X1415Y916D02*
X1456Y916D01*
X1342Y915D02*
X1383Y915D01*
X1415Y915D02*
X1455Y915D01*
X1342Y914D02*
X1384Y914D01*
X1414Y914D02*
X1455Y914D01*
X1343Y913D02*
X1385Y913D01*
X1413Y913D02*
X1454Y913D01*
X1344Y912D02*
X1386Y912D01*
X1412Y912D02*
X1454Y912D01*
X1344Y911D02*
X1387Y911D01*
X1410Y911D02*
X1453Y911D01*
X1345Y910D02*
X1389Y910D01*
X1409Y910D02*
X1452Y910D01*
X1346Y909D02*
X1391Y909D01*
X1407Y909D02*
X1452Y909D01*
X1346Y908D02*
X1394Y908D01*
X1403Y908D02*
X1451Y908D01*
X1347Y907D02*
X1450Y907D01*
X1348Y906D02*
X1449Y906D01*
X1349Y905D02*
X1448Y905D01*
X1351Y904D02*
X1447Y904D01*
X1352Y903D02*
X1445Y903D01*
X1354Y902D02*
X1444Y902D01*
X1355Y901D02*
X1442Y901D01*
X1357Y900D02*
X1440Y900D01*
X1360Y899D02*
X1437Y899D01*
X1364Y898D02*
X1433Y898D01*
X1364Y857D02*
X1434Y857D01*
X1360Y856D02*
X1438Y856D01*
X1357Y855D02*
X1440Y855D01*
X1355Y854D02*
X1442Y854D01*
X1353Y853D02*
X1444Y853D01*
X1352Y852D02*
X1446Y852D01*
X1351Y851D02*
X1447Y851D01*
X1349Y850D02*
X1448Y850D01*
X1348Y849D02*
X1449Y849D01*
X1347Y848D02*
X1450Y848D01*
X1346Y847D02*
X1394Y847D01*
X1404Y847D02*
X1451Y847D01*
X1346Y846D02*
X1391Y846D01*
X1407Y846D02*
X1452Y846D01*
X1345Y845D02*
X1389Y845D01*
X1409Y845D02*
X1453Y845D01*
X1344Y844D02*
X1387Y844D01*
X1411Y844D02*
X1453Y844D01*
X1344Y843D02*
X1386Y843D01*
X1412Y843D02*
X1454Y843D01*
X1343Y842D02*
X1384Y842D01*
X1413Y842D02*
X1454Y842D01*
X1342Y841D02*
X1383Y841D01*
X1414Y841D02*
X1455Y841D01*
X1342Y840D02*
X1383Y840D01*
X1415Y840D02*
X1455Y840D01*
X1341Y839D02*
X1382Y839D01*
X1416Y839D02*
X1456Y839D01*
X1341Y838D02*
X1381Y838D01*
X1416Y838D02*
X1456Y838D01*
X1341Y837D02*
X1381Y837D01*
X1417Y837D02*
X1457Y837D01*
X1340Y836D02*
X1380Y836D01*
X1417Y836D02*
X1457Y836D01*
X1340Y835D02*
X1380Y835D01*
X1418Y835D02*
X1457Y835D01*
X1340Y834D02*
X1379Y834D01*
X1418Y834D02*
X1457Y834D01*
X1340Y833D02*
X1379Y833D01*
X1418Y833D02*
X1458Y833D01*
X1340Y832D02*
X1379Y832D01*
X1419Y832D02*
X1458Y832D01*
X1339Y831D02*
X1379Y831D01*
X1419Y831D02*
X1458Y831D01*
X1339Y830D02*
X1378Y830D01*
X1419Y830D02*
X1458Y830D01*
X1339Y829D02*
X1378Y829D01*
X1419Y829D02*
X1458Y829D01*
X1339Y828D02*
X1378Y828D01*
X1419Y828D02*
X1458Y828D01*
X1339Y827D02*
X1378Y827D01*
X1419Y827D02*
X1458Y827D01*
X1339Y826D02*
X1378Y826D01*
X1419Y826D02*
X1458Y826D01*
X1339Y825D02*
X1378Y825D01*
X1419Y825D02*
X1458Y825D01*
X1339Y824D02*
X1379Y824D01*
X1419Y824D02*
X1458Y824D01*
X1340Y823D02*
X1379Y823D01*
X1419Y823D02*
X1458Y823D01*
X1340Y822D02*
X1379Y822D01*
X1418Y822D02*
X1458Y822D01*
X1340Y821D02*
X1379Y821D01*
X1418Y821D02*
X1457Y821D01*
X1340Y820D02*
X1380Y820D01*
X1418Y820D02*
X1457Y820D01*
X1340Y819D02*
X1380Y819D01*
X1417Y819D02*
X1457Y819D01*
X1341Y818D02*
X1381Y818D01*
X1417Y818D02*
X1457Y818D01*
X1341Y817D02*
X1381Y817D01*
X1416Y817D02*
X1456Y817D01*
X1342Y816D02*
X1382Y816D01*
X1415Y816D02*
X1456Y816D01*
X1342Y815D02*
X1383Y815D01*
X1415Y815D02*
X1455Y815D01*
X1342Y814D02*
X1384Y814D01*
X1414Y814D02*
X1455Y814D01*
X145Y813D02*
X152Y813D01*
X245Y813D02*
X252Y813D01*
X345Y813D02*
X352Y813D01*
X1343Y813D02*
X1385Y813D01*
X1413Y813D02*
X1454Y813D01*
X140Y812D02*
X157Y812D01*
X240Y812D02*
X256Y812D01*
X340Y812D02*
X356Y812D01*
X1344Y812D02*
X1386Y812D01*
X1412Y812D02*
X1454Y812D01*
X137Y811D02*
X159Y811D01*
X237Y811D02*
X259Y811D01*
X337Y811D02*
X359Y811D01*
X1344Y811D02*
X1387Y811D01*
X1410Y811D02*
X1453Y811D01*
X135Y810D02*
X161Y810D01*
X235Y810D02*
X261Y810D01*
X335Y810D02*
X361Y810D01*
X1345Y810D02*
X1389Y810D01*
X1409Y810D02*
X1452Y810D01*
X133Y809D02*
X163Y809D01*
X233Y809D02*
X263Y809D01*
X333Y809D02*
X363Y809D01*
X1346Y809D02*
X1391Y809D01*
X1407Y809D02*
X1452Y809D01*
X132Y808D02*
X165Y808D01*
X232Y808D02*
X265Y808D01*
X332Y808D02*
X365Y808D01*
X1346Y808D02*
X1394Y808D01*
X1403Y808D02*
X1451Y808D01*
X131Y807D02*
X166Y807D01*
X230Y807D02*
X266Y807D01*
X330Y807D02*
X366Y807D01*
X1347Y807D02*
X1450Y807D01*
X129Y806D02*
X167Y806D01*
X229Y806D02*
X267Y806D01*
X329Y806D02*
X367Y806D01*
X1348Y806D02*
X1449Y806D01*
X128Y805D02*
X169Y805D01*
X228Y805D02*
X268Y805D01*
X328Y805D02*
X368Y805D01*
X1349Y805D02*
X1448Y805D01*
X127Y804D02*
X170Y804D01*
X227Y804D02*
X269Y804D01*
X327Y804D02*
X369Y804D01*
X1351Y804D02*
X1447Y804D01*
X126Y803D02*
X170Y803D01*
X226Y803D02*
X270Y803D01*
X326Y803D02*
X370Y803D01*
X1352Y803D02*
X1445Y803D01*
X125Y802D02*
X171Y802D01*
X225Y802D02*
X271Y802D01*
X325Y802D02*
X371Y802D01*
X1354Y802D02*
X1444Y802D01*
X125Y801D02*
X172Y801D01*
X225Y801D02*
X272Y801D01*
X325Y801D02*
X372Y801D01*
X1355Y801D02*
X1442Y801D01*
X124Y800D02*
X173Y800D01*
X224Y800D02*
X273Y800D01*
X324Y800D02*
X373Y800D01*
X1357Y800D02*
X1440Y800D01*
X123Y799D02*
X173Y799D01*
X223Y799D02*
X273Y799D01*
X323Y799D02*
X373Y799D01*
X1360Y799D02*
X1437Y799D01*
X123Y798D02*
X174Y798D01*
X223Y798D02*
X274Y798D01*
X323Y798D02*
X374Y798D01*
X1364Y798D02*
X1433Y798D01*
X122Y797D02*
X174Y797D01*
X222Y797D02*
X274Y797D01*
X322Y797D02*
X374Y797D01*
X122Y796D02*
X175Y796D01*
X222Y796D02*
X275Y796D01*
X322Y796D02*
X375Y796D01*
X121Y795D02*
X175Y795D01*
X221Y795D02*
X275Y795D01*
X321Y795D02*
X375Y795D01*
X121Y794D02*
X176Y794D01*
X221Y794D02*
X276Y794D01*
X321Y794D02*
X376Y794D01*
X120Y793D02*
X176Y793D01*
X220Y793D02*
X276Y793D01*
X320Y793D02*
X376Y793D01*
X120Y792D02*
X177Y792D01*
X220Y792D02*
X276Y792D01*
X320Y792D02*
X376Y792D01*
X120Y791D02*
X177Y791D01*
X220Y791D02*
X277Y791D01*
X320Y791D02*
X377Y791D01*
X120Y790D02*
X177Y790D01*
X220Y790D02*
X277Y790D01*
X320Y790D02*
X377Y790D01*
X119Y789D02*
X177Y789D01*
X219Y789D02*
X277Y789D01*
X319Y789D02*
X377Y789D01*
X119Y788D02*
X177Y788D01*
X219Y788D02*
X277Y788D01*
X319Y788D02*
X377Y788D01*
X119Y787D02*
X178Y787D01*
X219Y787D02*
X278Y787D01*
X319Y787D02*
X377Y787D01*
X119Y786D02*
X178Y786D01*
X219Y786D02*
X278Y786D01*
X319Y786D02*
X378Y786D01*
X119Y785D02*
X178Y785D01*
X219Y785D02*
X278Y785D01*
X319Y785D02*
X378Y785D01*
X119Y784D02*
X178Y784D01*
X219Y784D02*
X278Y784D01*
X319Y784D02*
X378Y784D01*
X119Y783D02*
X178Y783D01*
X219Y783D02*
X278Y783D01*
X319Y783D02*
X378Y783D01*
X119Y782D02*
X178Y782D01*
X219Y782D02*
X278Y782D01*
X319Y782D02*
X378Y782D01*
X119Y781D02*
X178Y781D01*
X219Y781D02*
X278Y781D01*
X319Y781D02*
X378Y781D01*
X119Y780D02*
X178Y780D01*
X219Y780D02*
X278Y780D01*
X319Y780D02*
X378Y780D01*
X119Y779D02*
X178Y779D01*
X219Y779D02*
X278Y779D01*
X319Y779D02*
X378Y779D01*
X119Y778D02*
X178Y778D01*
X219Y778D02*
X278Y778D01*
X319Y778D02*
X378Y778D01*
X119Y777D02*
X178Y777D01*
X219Y777D02*
X278Y777D01*
X319Y777D02*
X378Y777D01*
X119Y776D02*
X178Y776D01*
X219Y776D02*
X278Y776D01*
X319Y776D02*
X378Y776D01*
X119Y775D02*
X178Y775D01*
X219Y775D02*
X278Y775D01*
X319Y775D02*
X378Y775D01*
X119Y774D02*
X178Y774D01*
X219Y774D02*
X278Y774D01*
X319Y774D02*
X378Y774D01*
X119Y773D02*
X145Y773D01*
X152Y773D02*
X178Y773D01*
X219Y773D02*
X245Y773D01*
X252Y773D02*
X278Y773D01*
X319Y773D02*
X345Y773D01*
X352Y773D02*
X378Y773D01*
X119Y772D02*
X141Y772D01*
X156Y772D02*
X178Y772D01*
X219Y772D02*
X241Y772D01*
X256Y772D02*
X278Y772D01*
X319Y772D02*
X341Y772D01*
X356Y772D02*
X378Y772D01*
X119Y771D02*
X139Y771D01*
X158Y771D02*
X178Y771D01*
X219Y771D02*
X239Y771D01*
X258Y771D02*
X278Y771D01*
X319Y771D02*
X339Y771D01*
X358Y771D02*
X378Y771D01*
X119Y770D02*
X137Y770D01*
X160Y770D02*
X178Y770D01*
X219Y770D02*
X237Y770D01*
X260Y770D02*
X278Y770D01*
X319Y770D02*
X337Y770D01*
X360Y770D02*
X378Y770D01*
X119Y769D02*
X136Y769D01*
X161Y769D02*
X178Y769D01*
X219Y769D02*
X236Y769D01*
X261Y769D02*
X278Y769D01*
X319Y769D02*
X335Y769D01*
X361Y769D02*
X378Y769D01*
X119Y768D02*
X134Y768D01*
X162Y768D02*
X178Y768D01*
X219Y768D02*
X234Y768D01*
X262Y768D02*
X278Y768D01*
X319Y768D02*
X334Y768D01*
X362Y768D02*
X378Y768D01*
X119Y767D02*
X133Y767D01*
X163Y767D02*
X178Y767D01*
X219Y767D02*
X233Y767D01*
X263Y767D02*
X278Y767D01*
X319Y767D02*
X333Y767D01*
X363Y767D02*
X378Y767D01*
X119Y766D02*
X133Y766D01*
X164Y766D02*
X178Y766D01*
X219Y766D02*
X232Y766D01*
X264Y766D02*
X278Y766D01*
X319Y766D02*
X332Y766D01*
X364Y766D02*
X378Y766D01*
X119Y765D02*
X132Y765D01*
X165Y765D02*
X178Y765D01*
X219Y765D02*
X232Y765D01*
X265Y765D02*
X278Y765D01*
X319Y765D02*
X332Y765D01*
X365Y765D02*
X378Y765D01*
X119Y764D02*
X131Y764D01*
X166Y764D02*
X178Y764D01*
X219Y764D02*
X231Y764D01*
X266Y764D02*
X278Y764D01*
X319Y764D02*
X331Y764D01*
X366Y764D02*
X378Y764D01*
X119Y763D02*
X130Y763D01*
X166Y763D02*
X178Y763D01*
X219Y763D02*
X230Y763D01*
X266Y763D02*
X278Y763D01*
X319Y763D02*
X330Y763D01*
X366Y763D02*
X378Y763D01*
X119Y762D02*
X130Y762D01*
X167Y762D02*
X178Y762D01*
X219Y762D02*
X230Y762D01*
X267Y762D02*
X278Y762D01*
X319Y762D02*
X330Y762D01*
X367Y762D02*
X378Y762D01*
X119Y761D02*
X129Y761D01*
X167Y761D02*
X178Y761D01*
X219Y761D02*
X229Y761D01*
X267Y761D02*
X278Y761D01*
X319Y761D02*
X329Y761D01*
X367Y761D02*
X378Y761D01*
X119Y760D02*
X129Y760D01*
X168Y760D02*
X178Y760D01*
X219Y760D02*
X229Y760D01*
X268Y760D02*
X278Y760D01*
X319Y760D02*
X329Y760D01*
X368Y760D02*
X378Y760D01*
X119Y759D02*
X129Y759D01*
X168Y759D02*
X178Y759D01*
X219Y759D02*
X229Y759D01*
X268Y759D02*
X278Y759D01*
X319Y759D02*
X329Y759D01*
X368Y759D02*
X378Y759D01*
X119Y758D02*
X128Y758D01*
X168Y758D02*
X178Y758D01*
X219Y758D02*
X228Y758D01*
X268Y758D02*
X278Y758D01*
X319Y758D02*
X328Y758D01*
X368Y758D02*
X378Y758D01*
X119Y757D02*
X128Y757D01*
X168Y757D02*
X178Y757D01*
X219Y757D02*
X228Y757D01*
X268Y757D02*
X278Y757D01*
X319Y757D02*
X328Y757D01*
X368Y757D02*
X378Y757D01*
X119Y756D02*
X128Y756D01*
X169Y756D02*
X178Y756D01*
X219Y756D02*
X228Y756D01*
X269Y756D02*
X278Y756D01*
X319Y756D02*
X328Y756D01*
X368Y756D02*
X378Y756D01*
X119Y755D02*
X128Y755D01*
X169Y755D02*
X178Y755D01*
X219Y755D02*
X228Y755D01*
X269Y755D02*
X278Y755D01*
X319Y755D02*
X328Y755D01*
X369Y755D02*
X378Y755D01*
X119Y754D02*
X128Y754D01*
X169Y754D02*
X178Y754D01*
X219Y754D02*
X228Y754D01*
X269Y754D02*
X278Y754D01*
X319Y754D02*
X328Y754D01*
X369Y754D02*
X378Y754D01*
X119Y753D02*
X128Y753D01*
X169Y753D02*
X178Y753D01*
X219Y753D02*
X228Y753D01*
X269Y753D02*
X278Y753D01*
X319Y753D02*
X328Y753D01*
X369Y753D02*
X378Y753D01*
X119Y752D02*
X128Y752D01*
X169Y752D02*
X178Y752D01*
X219Y752D02*
X228Y752D01*
X269Y752D02*
X278Y752D01*
X319Y752D02*
X328Y752D01*
X369Y752D02*
X378Y752D01*
X119Y751D02*
X128Y751D01*
X169Y751D02*
X178Y751D01*
X219Y751D02*
X228Y751D01*
X269Y751D02*
X278Y751D01*
X319Y751D02*
X328Y751D01*
X369Y751D02*
X378Y751D01*
X119Y750D02*
X128Y750D01*
X168Y750D02*
X178Y750D01*
X219Y750D02*
X228Y750D01*
X268Y750D02*
X278Y750D01*
X319Y750D02*
X328Y750D01*
X368Y750D02*
X378Y750D01*
X119Y749D02*
X128Y749D01*
X168Y749D02*
X178Y749D01*
X219Y749D02*
X228Y749D01*
X268Y749D02*
X278Y749D01*
X319Y749D02*
X328Y749D01*
X368Y749D02*
X378Y749D01*
X119Y748D02*
X129Y748D01*
X168Y748D02*
X178Y748D01*
X219Y748D02*
X229Y748D01*
X268Y748D02*
X278Y748D01*
X319Y748D02*
X329Y748D01*
X368Y748D02*
X378Y748D01*
X119Y747D02*
X129Y747D01*
X168Y747D02*
X178Y747D01*
X219Y747D02*
X229Y747D01*
X268Y747D02*
X278Y747D01*
X319Y747D02*
X329Y747D01*
X368Y747D02*
X378Y747D01*
X119Y746D02*
X129Y746D01*
X167Y746D02*
X178Y746D01*
X219Y746D02*
X229Y746D01*
X267Y746D02*
X278Y746D01*
X319Y746D02*
X329Y746D01*
X367Y746D02*
X378Y746D01*
X119Y745D02*
X130Y745D01*
X167Y745D02*
X178Y745D01*
X219Y745D02*
X230Y745D01*
X267Y745D02*
X278Y745D01*
X319Y745D02*
X330Y745D01*
X367Y745D02*
X378Y745D01*
X119Y744D02*
X130Y744D01*
X166Y744D02*
X178Y744D01*
X219Y744D02*
X230Y744D01*
X266Y744D02*
X278Y744D01*
X319Y744D02*
X330Y744D01*
X366Y744D02*
X378Y744D01*
X119Y743D02*
X131Y743D01*
X166Y743D02*
X178Y743D01*
X219Y743D02*
X231Y743D01*
X266Y743D02*
X278Y743D01*
X319Y743D02*
X331Y743D01*
X366Y743D02*
X378Y743D01*
X119Y742D02*
X131Y742D01*
X165Y742D02*
X178Y742D01*
X219Y742D02*
X231Y742D01*
X265Y742D02*
X278Y742D01*
X319Y742D02*
X331Y742D01*
X365Y742D02*
X378Y742D01*
X119Y741D02*
X132Y741D01*
X164Y741D02*
X178Y741D01*
X219Y741D02*
X232Y741D01*
X264Y741D02*
X278Y741D01*
X319Y741D02*
X332Y741D01*
X364Y741D02*
X378Y741D01*
X119Y740D02*
X133Y740D01*
X164Y740D02*
X178Y740D01*
X219Y740D02*
X233Y740D01*
X264Y740D02*
X278Y740D01*
X319Y740D02*
X333Y740D01*
X364Y740D02*
X378Y740D01*
X119Y739D02*
X134Y739D01*
X163Y739D02*
X178Y739D01*
X219Y739D02*
X234Y739D01*
X263Y739D02*
X278Y739D01*
X319Y739D02*
X334Y739D01*
X363Y739D02*
X378Y739D01*
X119Y738D02*
X135Y738D01*
X162Y738D02*
X178Y738D01*
X219Y738D02*
X235Y738D01*
X262Y738D02*
X278Y738D01*
X319Y738D02*
X335Y738D01*
X361Y738D02*
X378Y738D01*
X119Y737D02*
X136Y737D01*
X160Y737D02*
X178Y737D01*
X219Y737D02*
X236Y737D01*
X260Y737D02*
X278Y737D01*
X319Y737D02*
X336Y737D01*
X360Y737D02*
X378Y737D01*
X119Y736D02*
X138Y736D01*
X159Y736D02*
X178Y736D01*
X219Y736D02*
X238Y736D01*
X259Y736D02*
X278Y736D01*
X319Y736D02*
X338Y736D01*
X359Y736D02*
X378Y736D01*
X119Y735D02*
X140Y735D01*
X157Y735D02*
X178Y735D01*
X219Y735D02*
X240Y735D01*
X257Y735D02*
X278Y735D01*
X319Y735D02*
X340Y735D01*
X357Y735D02*
X378Y735D01*
X119Y734D02*
X143Y734D01*
X154Y734D02*
X178Y734D01*
X219Y734D02*
X243Y734D01*
X254Y734D02*
X278Y734D01*
X319Y734D02*
X343Y734D01*
X354Y734D02*
X378Y734D01*
X119Y733D02*
X178Y733D01*
X219Y733D02*
X278Y733D01*
X319Y733D02*
X378Y733D01*
X119Y732D02*
X178Y732D01*
X219Y732D02*
X278Y732D01*
X319Y732D02*
X378Y732D01*
X119Y731D02*
X178Y731D01*
X219Y731D02*
X278Y731D01*
X319Y731D02*
X378Y731D01*
X119Y730D02*
X178Y730D01*
X219Y730D02*
X278Y730D01*
X319Y730D02*
X378Y730D01*
X119Y729D02*
X178Y729D01*
X219Y729D02*
X278Y729D01*
X319Y729D02*
X378Y729D01*
X119Y728D02*
X178Y728D01*
X219Y728D02*
X278Y728D01*
X319Y728D02*
X378Y728D01*
X119Y727D02*
X178Y727D01*
X219Y727D02*
X278Y727D01*
X319Y727D02*
X378Y727D01*
X119Y726D02*
X178Y726D01*
X219Y726D02*
X278Y726D01*
X319Y726D02*
X378Y726D01*
X119Y725D02*
X178Y725D01*
X219Y725D02*
X278Y725D01*
X319Y725D02*
X378Y725D01*
X119Y724D02*
X178Y724D01*
X219Y724D02*
X278Y724D01*
X319Y724D02*
X378Y724D01*
X119Y723D02*
X178Y723D01*
X219Y723D02*
X278Y723D01*
X319Y723D02*
X378Y723D01*
X119Y722D02*
X178Y722D01*
X219Y722D02*
X278Y722D01*
X319Y722D02*
X378Y722D01*
X119Y721D02*
X178Y721D01*
X219Y721D02*
X278Y721D01*
X319Y721D02*
X378Y721D01*
X119Y720D02*
X178Y720D01*
X219Y720D02*
X278Y720D01*
X319Y720D02*
X378Y720D01*
X119Y719D02*
X177Y719D01*
X219Y719D02*
X277Y719D01*
X319Y719D02*
X377Y719D01*
X119Y718D02*
X177Y718D01*
X219Y718D02*
X277Y718D01*
X319Y718D02*
X377Y718D01*
X120Y717D02*
X177Y717D01*
X219Y717D02*
X277Y717D01*
X319Y717D02*
X377Y717D01*
X120Y716D02*
X177Y716D01*
X220Y716D02*
X277Y716D01*
X320Y716D02*
X377Y716D01*
X120Y715D02*
X177Y715D01*
X220Y715D02*
X277Y715D01*
X320Y715D02*
X377Y715D01*
X120Y714D02*
X176Y714D01*
X220Y714D02*
X276Y714D01*
X320Y714D02*
X376Y714D01*
X121Y713D02*
X176Y713D01*
X221Y713D02*
X276Y713D01*
X321Y713D02*
X376Y713D01*
X121Y712D02*
X176Y712D01*
X221Y712D02*
X276Y712D01*
X321Y712D02*
X376Y712D01*
X122Y711D02*
X175Y711D01*
X221Y711D02*
X275Y711D01*
X321Y711D02*
X375Y711D01*
X122Y710D02*
X175Y710D01*
X222Y710D02*
X275Y710D01*
X322Y710D02*
X375Y710D01*
X122Y709D02*
X174Y709D01*
X222Y709D02*
X274Y709D01*
X322Y709D02*
X374Y709D01*
X123Y708D02*
X174Y708D01*
X223Y708D02*
X274Y708D01*
X323Y708D02*
X374Y708D01*
X124Y707D02*
X173Y707D01*
X224Y707D02*
X273Y707D01*
X324Y707D02*
X373Y707D01*
X124Y706D02*
X172Y706D01*
X224Y706D02*
X272Y706D01*
X324Y706D02*
X372Y706D01*
X125Y705D02*
X172Y705D01*
X225Y705D02*
X271Y705D01*
X325Y705D02*
X371Y705D01*
X126Y704D02*
X171Y704D01*
X226Y704D02*
X271Y704D01*
X326Y704D02*
X371Y704D01*
X127Y703D02*
X170Y703D01*
X227Y703D02*
X270Y703D01*
X327Y703D02*
X370Y703D01*
X128Y702D02*
X169Y702D01*
X228Y702D02*
X269Y702D01*
X328Y702D02*
X369Y702D01*
X129Y701D02*
X168Y701D01*
X229Y701D02*
X268Y701D01*
X329Y701D02*
X368Y701D01*
X130Y700D02*
X167Y700D01*
X230Y700D02*
X267Y700D01*
X330Y700D02*
X367Y700D01*
X131Y699D02*
X165Y699D01*
X231Y699D02*
X265Y699D01*
X331Y699D02*
X365Y699D01*
X133Y698D02*
X164Y698D01*
X233Y698D02*
X264Y698D01*
X333Y698D02*
X364Y698D01*
X134Y697D02*
X162Y697D01*
X234Y697D02*
X262Y697D01*
X334Y697D02*
X362Y697D01*
X137Y696D02*
X160Y696D01*
X236Y696D02*
X260Y696D01*
X336Y696D02*
X360Y696D01*
X139Y695D02*
X158Y695D01*
X239Y695D02*
X258Y695D01*
X339Y695D02*
X358Y695D01*
X143Y694D02*
X154Y694D01*
X243Y694D02*
X254Y694D01*
X342Y694D02*
X354Y694D01*
D02*
G04 End of Copper1*
M02*