G04 MADE WITH FRITZING*
G04 WWW.FRITZING.ORG*
G04 DOUBLE SIDED*
G04 HOLES PLATED*
G04 CONTOUR ON CENTER OF CONTOUR VECTOR*
%ASAXBY*%
%FSLAX23Y23*%
%MOIN*%
%OFA0B0*%
%SFA1.0B1.0*%
%ADD10C,0.077778*%
%ADD11C,0.075000*%
%ADD12C,0.080000*%
%ADD13C,0.140000*%
%ADD14C,0.060000*%
%ADD15C,0.062992*%
%ADD16C,0.070000*%
%ADD17C,0.082000*%
%ADD18C,0.039370*%
%ADD19C,0.078000*%
%ADD20R,0.080000X0.080000*%
%ADD21R,0.075000X0.075000*%
%ADD22R,0.062992X0.062992*%
%ADD23R,0.082000X0.082000*%
%ADD24C,0.024000*%
%ADD25R,0.001000X0.001000*%
%LNCOPPER0*%
G90*
G70*
G54D10*
X150Y2051D03*
X150Y1951D03*
X150Y1851D03*
X150Y1751D03*
X150Y1651D03*
X150Y1551D03*
X150Y1451D03*
X150Y1351D03*
X1050Y1351D03*
X1050Y1451D03*
X1050Y1551D03*
X1050Y1651D03*
X1050Y1751D03*
X1050Y1851D03*
X1050Y1951D03*
X1050Y2051D03*
G54D11*
X1100Y951D03*
X700Y951D03*
X1100Y851D03*
X700Y851D03*
G54D12*
X999Y402D03*
X899Y402D03*
X799Y402D03*
X699Y402D03*
X599Y402D03*
X499Y402D03*
X399Y402D03*
G54D13*
X1610Y1921D03*
X1850Y1921D03*
X1730Y2111D03*
G54D14*
X1400Y1026D03*
X1400Y926D03*
X1400Y826D03*
G54D11*
X1200Y1326D03*
X1300Y1326D03*
X1200Y676D03*
X1300Y676D03*
X1450Y551D03*
X1450Y151D03*
G54D15*
X1298Y301D03*
X1200Y301D03*
G54D16*
X1200Y476D03*
X1300Y476D03*
G54D14*
X149Y752D03*
X249Y752D03*
X349Y752D03*
G54D11*
X475Y1151D03*
X875Y1151D03*
G54D17*
X475Y601D03*
X177Y601D03*
G54D18*
X749Y502D03*
G54D12*
X199Y402D03*
X99Y402D03*
G54D19*
X1500Y1326D03*
X1500Y1426D03*
X1500Y1526D03*
X1500Y1626D03*
G54D12*
X1730Y2336D03*
X1592Y2336D03*
G54D20*
X999Y402D03*
G54D21*
X1200Y1326D03*
X1200Y676D03*
G54D22*
X1298Y301D03*
G54D23*
X476Y601D03*
G54D20*
X199Y402D03*
X1730Y2336D03*
G54D24*
X1200Y2111D02*
X1669Y2111D01*
D02*
X1200Y1355D02*
X1200Y2111D01*
D02*
X99Y602D02*
X145Y602D01*
D02*
X99Y433D02*
X99Y602D01*
D02*
X1300Y1026D02*
X1300Y1298D01*
D02*
X1369Y1026D02*
X1300Y1026D01*
D02*
X1200Y926D02*
X1369Y926D01*
D02*
X1200Y1298D02*
X1200Y926D01*
D02*
X1200Y926D02*
X1200Y705D01*
D02*
X1369Y926D02*
X1200Y926D01*
D02*
X1300Y826D02*
X1369Y826D01*
D02*
X1300Y705D02*
X1300Y826D01*
D02*
X1300Y502D02*
X1300Y648D01*
D02*
X1450Y523D02*
X1450Y476D01*
D02*
X1178Y1345D02*
X1072Y1433D01*
D02*
X874Y1452D02*
X875Y1180D01*
D02*
X1021Y1451D02*
X874Y1452D01*
D02*
X1200Y502D02*
X1200Y648D01*
D02*
X1200Y328D02*
X1200Y450D01*
D02*
X248Y602D02*
X249Y721D01*
D02*
X209Y602D02*
X248Y602D01*
D02*
X400Y751D02*
X399Y433D01*
D02*
X380Y752D02*
X400Y751D01*
D02*
X999Y77D02*
X999Y371D01*
D02*
X1551Y77D02*
X999Y77D01*
D02*
X1549Y1026D02*
X1551Y77D01*
D02*
X1431Y1026D02*
X1549Y1026D01*
D02*
X400Y301D02*
X399Y371D01*
D02*
X898Y301D02*
X400Y301D01*
D02*
X899Y371D02*
X898Y301D01*
D02*
X507Y601D02*
X999Y602D01*
D02*
X999Y602D02*
X999Y433D01*
D02*
X1099Y1352D02*
X1100Y980D01*
D02*
X1079Y1352D02*
X1099Y1352D01*
D02*
X1100Y880D02*
X1100Y923D01*
D02*
X1450Y476D02*
X1326Y476D01*
D02*
X699Y1650D02*
X700Y980D01*
D02*
X1021Y1651D02*
X699Y1650D01*
D02*
X800Y851D02*
X728Y851D01*
D02*
X800Y1551D02*
X800Y851D01*
D02*
X1021Y1551D02*
X800Y1551D01*
D02*
X498Y501D02*
X730Y502D01*
D02*
X499Y433D02*
X498Y501D01*
G54D25*
X1297Y1934D02*
X1610Y1934D01*
X1294Y1933D02*
X1613Y1933D01*
X1292Y1932D02*
X1615Y1932D01*
X1291Y1931D02*
X1616Y1931D01*
X1290Y1930D02*
X1617Y1930D01*
X1289Y1929D02*
X1618Y1929D01*
X1289Y1928D02*
X1619Y1928D01*
X1288Y1927D02*
X1619Y1927D01*
X1288Y1926D02*
X1619Y1926D01*
X1288Y1925D02*
X1620Y1925D01*
X1287Y1924D02*
X1620Y1924D01*
X1287Y1923D02*
X1620Y1923D01*
X1287Y1922D02*
X1620Y1922D01*
X1287Y1921D02*
X1620Y1921D01*
X1287Y1920D02*
X1620Y1920D01*
X1287Y1919D02*
X1620Y1919D01*
X1287Y1918D02*
X1619Y1918D01*
X1287Y1917D02*
X1619Y1917D01*
X1287Y1916D02*
X1618Y1916D01*
X1287Y1915D02*
X1618Y1915D01*
X1287Y1914D02*
X1617Y1914D01*
X1287Y1913D02*
X1616Y1913D01*
X1287Y1912D02*
X1614Y1912D01*
X1287Y1911D02*
X1612Y1911D01*
X1287Y1910D02*
X1310Y1910D01*
X1287Y1909D02*
X1310Y1909D01*
X1287Y1908D02*
X1310Y1908D01*
X1287Y1907D02*
X1310Y1907D01*
X1287Y1906D02*
X1310Y1906D01*
X1287Y1905D02*
X1310Y1905D01*
X1287Y1904D02*
X1310Y1904D01*
X1287Y1903D02*
X1310Y1903D01*
X1287Y1902D02*
X1310Y1902D01*
X1287Y1901D02*
X1310Y1901D01*
X1287Y1900D02*
X1310Y1900D01*
X1287Y1899D02*
X1310Y1899D01*
X1287Y1898D02*
X1310Y1898D01*
X1287Y1897D02*
X1310Y1897D01*
X1287Y1896D02*
X1310Y1896D01*
X1287Y1895D02*
X1310Y1895D01*
X1287Y1894D02*
X1310Y1894D01*
X1287Y1893D02*
X1310Y1893D01*
X1287Y1892D02*
X1310Y1892D01*
X1287Y1891D02*
X1310Y1891D01*
X1287Y1890D02*
X1310Y1890D01*
X1287Y1889D02*
X1310Y1889D01*
X1287Y1888D02*
X1310Y1888D01*
X1287Y1887D02*
X1310Y1887D01*
X1287Y1886D02*
X1310Y1886D01*
X1287Y1885D02*
X1310Y1885D01*
X1287Y1884D02*
X1310Y1884D01*
X1287Y1883D02*
X1310Y1883D01*
X1287Y1882D02*
X1310Y1882D01*
X1287Y1881D02*
X1310Y1881D01*
X1287Y1880D02*
X1310Y1880D01*
X1287Y1879D02*
X1310Y1879D01*
X1287Y1878D02*
X1310Y1878D01*
X1287Y1877D02*
X1310Y1877D01*
X1287Y1876D02*
X1310Y1876D01*
X1287Y1875D02*
X1310Y1875D01*
X1287Y1874D02*
X1310Y1874D01*
X1287Y1873D02*
X1310Y1873D01*
X1287Y1872D02*
X1310Y1872D01*
X1287Y1871D02*
X1310Y1871D01*
X1287Y1870D02*
X1310Y1870D01*
X1287Y1869D02*
X1310Y1869D01*
X1287Y1868D02*
X1310Y1868D01*
X1287Y1867D02*
X1310Y1867D01*
X1287Y1866D02*
X1310Y1866D01*
X1287Y1865D02*
X1310Y1865D01*
X1287Y1864D02*
X1310Y1864D01*
X1287Y1863D02*
X1310Y1863D01*
X1287Y1862D02*
X1310Y1862D01*
X1287Y1861D02*
X1310Y1861D01*
X1287Y1860D02*
X1310Y1860D01*
X1287Y1859D02*
X1310Y1859D01*
X1287Y1858D02*
X1310Y1858D01*
X1287Y1857D02*
X1310Y1857D01*
X1287Y1856D02*
X1310Y1856D01*
X1287Y1855D02*
X1310Y1855D01*
X1287Y1854D02*
X1310Y1854D01*
X1287Y1853D02*
X1310Y1853D01*
X1287Y1852D02*
X1310Y1852D01*
X1287Y1851D02*
X1310Y1851D01*
X1287Y1850D02*
X1310Y1850D01*
X1287Y1849D02*
X1310Y1849D01*
X1287Y1848D02*
X1310Y1848D01*
X1287Y1847D02*
X1310Y1847D01*
X1287Y1846D02*
X1310Y1846D01*
X1287Y1845D02*
X1310Y1845D01*
X1287Y1844D02*
X1310Y1844D01*
X1287Y1843D02*
X1310Y1843D01*
X1287Y1842D02*
X1310Y1842D01*
X1287Y1841D02*
X1310Y1841D01*
X1287Y1840D02*
X1310Y1840D01*
X1287Y1839D02*
X1310Y1839D01*
X1287Y1838D02*
X1310Y1838D01*
X1287Y1837D02*
X1310Y1837D01*
X1287Y1836D02*
X1310Y1836D01*
X1287Y1835D02*
X1310Y1835D01*
X1287Y1834D02*
X1310Y1834D01*
X1287Y1833D02*
X1310Y1833D01*
X1287Y1832D02*
X1310Y1832D01*
X1287Y1831D02*
X1310Y1831D01*
X1287Y1830D02*
X1310Y1830D01*
X1287Y1829D02*
X1310Y1829D01*
X1287Y1828D02*
X1310Y1828D01*
X1287Y1827D02*
X1310Y1827D01*
X1287Y1826D02*
X1310Y1826D01*
X1287Y1825D02*
X1310Y1825D01*
X1287Y1824D02*
X1310Y1824D01*
X1287Y1823D02*
X1310Y1823D01*
X1287Y1822D02*
X1310Y1822D01*
X1287Y1821D02*
X1310Y1821D01*
X1287Y1820D02*
X1310Y1820D01*
X1287Y1819D02*
X1310Y1819D01*
X1287Y1818D02*
X1310Y1818D01*
X1287Y1817D02*
X1310Y1817D01*
X1287Y1816D02*
X1310Y1816D01*
X1287Y1815D02*
X1310Y1815D01*
X1287Y1814D02*
X1310Y1814D01*
X1287Y1813D02*
X1310Y1813D01*
X1287Y1812D02*
X1310Y1812D01*
X1287Y1811D02*
X1310Y1811D01*
X1287Y1810D02*
X1310Y1810D01*
X1287Y1809D02*
X1310Y1809D01*
X1287Y1808D02*
X1310Y1808D01*
X1287Y1807D02*
X1310Y1807D01*
X1287Y1806D02*
X1310Y1806D01*
X1287Y1805D02*
X1310Y1805D01*
X1287Y1804D02*
X1310Y1804D01*
X1287Y1803D02*
X1310Y1803D01*
X1287Y1802D02*
X1310Y1802D01*
X1287Y1801D02*
X1310Y1801D01*
X1287Y1800D02*
X1310Y1800D01*
X1287Y1799D02*
X1310Y1799D01*
X1287Y1798D02*
X1310Y1798D01*
X1287Y1797D02*
X1310Y1797D01*
X1287Y1796D02*
X1310Y1796D01*
X1287Y1795D02*
X1310Y1795D01*
X1287Y1794D02*
X1310Y1794D01*
X1287Y1793D02*
X1310Y1793D01*
X1287Y1792D02*
X1310Y1792D01*
X1287Y1791D02*
X1310Y1791D01*
X1287Y1790D02*
X1310Y1790D01*
X1287Y1789D02*
X1310Y1789D01*
X1287Y1788D02*
X1310Y1788D01*
X1287Y1787D02*
X1310Y1787D01*
X1287Y1786D02*
X1310Y1786D01*
X1287Y1785D02*
X1310Y1785D01*
X1287Y1784D02*
X1310Y1784D01*
X1287Y1783D02*
X1310Y1783D01*
X1287Y1782D02*
X1310Y1782D01*
X1287Y1781D02*
X1310Y1781D01*
X1287Y1780D02*
X1310Y1780D01*
X1287Y1779D02*
X1310Y1779D01*
X1287Y1778D02*
X1310Y1778D01*
X1287Y1777D02*
X1310Y1777D01*
X1287Y1776D02*
X1310Y1776D01*
X1287Y1775D02*
X1310Y1775D01*
X1287Y1774D02*
X1310Y1774D01*
X1287Y1773D02*
X1310Y1773D01*
X1287Y1772D02*
X1310Y1772D01*
X1287Y1771D02*
X1310Y1771D01*
X1287Y1770D02*
X1310Y1770D01*
X1287Y1769D02*
X1310Y1769D01*
X1287Y1768D02*
X1310Y1768D01*
X1287Y1767D02*
X1310Y1767D01*
X1287Y1766D02*
X1310Y1766D01*
X1287Y1765D02*
X1310Y1765D01*
X1287Y1764D02*
X1310Y1764D01*
X1287Y1763D02*
X1310Y1763D01*
X1287Y1762D02*
X1310Y1762D01*
X1287Y1761D02*
X1310Y1761D01*
X1287Y1760D02*
X1310Y1760D01*
X1287Y1759D02*
X1310Y1759D01*
X1287Y1758D02*
X1310Y1758D01*
X1287Y1757D02*
X1310Y1757D01*
X1287Y1756D02*
X1310Y1756D01*
X1287Y1755D02*
X1310Y1755D01*
X1287Y1754D02*
X1310Y1754D01*
X1287Y1753D02*
X1310Y1753D01*
X1287Y1752D02*
X1310Y1752D01*
X1287Y1751D02*
X1310Y1751D01*
X1287Y1750D02*
X1310Y1750D01*
X1287Y1749D02*
X1310Y1749D01*
X1287Y1748D02*
X1310Y1748D01*
X1287Y1747D02*
X1310Y1747D01*
X1287Y1746D02*
X1310Y1746D01*
X1287Y1745D02*
X1310Y1745D01*
X1287Y1744D02*
X1310Y1744D01*
X1287Y1743D02*
X1310Y1743D01*
X1287Y1742D02*
X1310Y1742D01*
X1287Y1741D02*
X1310Y1741D01*
X1287Y1740D02*
X1310Y1740D01*
X1287Y1739D02*
X1310Y1739D01*
X1287Y1738D02*
X1310Y1738D01*
X1287Y1737D02*
X1310Y1737D01*
X1287Y1736D02*
X1310Y1736D01*
X1287Y1735D02*
X1310Y1735D01*
X1287Y1734D02*
X1310Y1734D01*
X1287Y1733D02*
X1310Y1733D01*
X1287Y1732D02*
X1310Y1732D01*
X1287Y1731D02*
X1310Y1731D01*
X1287Y1730D02*
X1310Y1730D01*
X1287Y1729D02*
X1310Y1729D01*
X1287Y1728D02*
X1310Y1728D01*
X1287Y1727D02*
X1310Y1727D01*
X1287Y1726D02*
X1310Y1726D01*
X1287Y1725D02*
X1310Y1725D01*
X1287Y1724D02*
X1310Y1724D01*
X1287Y1723D02*
X1310Y1723D01*
X1287Y1722D02*
X1310Y1722D01*
X1287Y1721D02*
X1310Y1721D01*
X1287Y1720D02*
X1310Y1720D01*
X1287Y1719D02*
X1310Y1719D01*
X1287Y1718D02*
X1310Y1718D01*
X1287Y1717D02*
X1310Y1717D01*
X1287Y1716D02*
X1310Y1716D01*
X1287Y1715D02*
X1310Y1715D01*
X1287Y1714D02*
X1310Y1714D01*
X1287Y1713D02*
X1310Y1713D01*
X1287Y1712D02*
X1310Y1712D01*
X1287Y1711D02*
X1310Y1711D01*
X1287Y1710D02*
X1310Y1710D01*
X1287Y1709D02*
X1310Y1709D01*
X1287Y1708D02*
X1310Y1708D01*
X1287Y1707D02*
X1310Y1707D01*
X1287Y1706D02*
X1310Y1706D01*
X1287Y1705D02*
X1310Y1705D01*
X1287Y1704D02*
X1310Y1704D01*
X1287Y1703D02*
X1310Y1703D01*
X1287Y1702D02*
X1310Y1702D01*
X1287Y1701D02*
X1310Y1701D01*
X1287Y1700D02*
X1310Y1700D01*
X1287Y1699D02*
X1310Y1699D01*
X1287Y1698D02*
X1310Y1698D01*
X1287Y1697D02*
X1310Y1697D01*
X1287Y1696D02*
X1310Y1696D01*
X1287Y1695D02*
X1310Y1695D01*
X1287Y1694D02*
X1310Y1694D01*
X1287Y1693D02*
X1310Y1693D01*
X1287Y1692D02*
X1310Y1692D01*
X1287Y1691D02*
X1310Y1691D01*
X1287Y1690D02*
X1310Y1690D01*
X1287Y1689D02*
X1310Y1689D01*
X1287Y1688D02*
X1310Y1688D01*
X1287Y1687D02*
X1310Y1687D01*
X1287Y1686D02*
X1310Y1686D01*
X1287Y1685D02*
X1310Y1685D01*
X1287Y1684D02*
X1310Y1684D01*
X1287Y1683D02*
X1310Y1683D01*
X1287Y1682D02*
X1310Y1682D01*
X1287Y1681D02*
X1310Y1681D01*
X1287Y1680D02*
X1310Y1680D01*
X1287Y1679D02*
X1310Y1679D01*
X1287Y1678D02*
X1310Y1678D01*
X1287Y1677D02*
X1310Y1677D01*
X1287Y1676D02*
X1310Y1676D01*
X1287Y1675D02*
X1310Y1675D01*
X1287Y1674D02*
X1310Y1674D01*
X1287Y1673D02*
X1310Y1673D01*
X1287Y1672D02*
X1310Y1672D01*
X1287Y1671D02*
X1310Y1671D01*
X1287Y1670D02*
X1310Y1670D01*
X1287Y1669D02*
X1310Y1669D01*
X1287Y1668D02*
X1310Y1668D01*
X1287Y1667D02*
X1310Y1667D01*
X1287Y1666D02*
X1310Y1666D01*
X1287Y1665D02*
X1310Y1665D01*
X1287Y1664D02*
X1310Y1664D01*
X1287Y1663D02*
X1310Y1663D01*
X1287Y1662D02*
X1310Y1662D01*
X1287Y1661D02*
X1310Y1661D01*
X1287Y1660D02*
X1310Y1660D01*
X1287Y1659D02*
X1310Y1659D01*
X1287Y1658D02*
X1310Y1658D01*
X1287Y1657D02*
X1310Y1657D01*
X1287Y1656D02*
X1310Y1656D01*
X1287Y1655D02*
X1310Y1655D01*
X1287Y1654D02*
X1310Y1654D01*
X1287Y1653D02*
X1310Y1653D01*
X1287Y1652D02*
X1310Y1652D01*
X1287Y1651D02*
X1310Y1651D01*
X1287Y1650D02*
X1310Y1650D01*
X1287Y1649D02*
X1310Y1649D01*
X1287Y1648D02*
X1310Y1648D01*
X1287Y1647D02*
X1310Y1647D01*
X1287Y1646D02*
X1310Y1646D01*
X1287Y1645D02*
X1310Y1645D01*
X1287Y1644D02*
X1310Y1644D01*
X1287Y1643D02*
X1310Y1643D01*
X1287Y1642D02*
X1310Y1642D01*
X1287Y1641D02*
X1310Y1641D01*
X1287Y1640D02*
X1310Y1640D01*
X1287Y1639D02*
X1310Y1639D01*
X1287Y1638D02*
X1310Y1638D01*
X1287Y1637D02*
X1310Y1637D01*
X1287Y1636D02*
X1310Y1636D01*
X1287Y1635D02*
X1310Y1635D01*
X1287Y1634D02*
X1310Y1634D01*
X1287Y1633D02*
X1310Y1633D01*
X1287Y1632D02*
X1310Y1632D01*
X1287Y1631D02*
X1310Y1631D01*
X1287Y1630D02*
X1310Y1630D01*
X1287Y1629D02*
X1310Y1629D01*
X1287Y1628D02*
X1310Y1628D01*
X1287Y1627D02*
X1310Y1627D01*
X1287Y1626D02*
X1310Y1626D01*
X1287Y1625D02*
X1310Y1625D01*
X1287Y1624D02*
X1310Y1624D01*
X1287Y1623D02*
X1310Y1623D01*
X1287Y1622D02*
X1310Y1622D01*
X1287Y1621D02*
X1310Y1621D01*
X1287Y1620D02*
X1310Y1620D01*
X1287Y1619D02*
X1310Y1619D01*
X1287Y1618D02*
X1310Y1618D01*
X1287Y1617D02*
X1310Y1617D01*
X1287Y1616D02*
X1310Y1616D01*
X1287Y1615D02*
X1310Y1615D01*
X1287Y1614D02*
X1310Y1614D01*
X1287Y1613D02*
X1310Y1613D01*
X1287Y1612D02*
X1310Y1612D01*
X1287Y1611D02*
X1310Y1611D01*
X1287Y1610D02*
X1310Y1610D01*
X1287Y1609D02*
X1310Y1609D01*
X1287Y1608D02*
X1310Y1608D01*
X1287Y1607D02*
X1310Y1607D01*
X1287Y1606D02*
X1310Y1606D01*
X1287Y1605D02*
X1310Y1605D01*
X1287Y1604D02*
X1310Y1604D01*
X1287Y1603D02*
X1310Y1603D01*
X1287Y1602D02*
X1310Y1602D01*
X1287Y1601D02*
X1310Y1601D01*
X1287Y1600D02*
X1310Y1600D01*
X1287Y1599D02*
X1310Y1599D01*
X1287Y1598D02*
X1310Y1598D01*
X1287Y1597D02*
X1310Y1597D01*
X1287Y1596D02*
X1310Y1596D01*
X1287Y1595D02*
X1310Y1595D01*
X1287Y1594D02*
X1310Y1594D01*
X1287Y1593D02*
X1310Y1593D01*
X1287Y1592D02*
X1310Y1592D01*
X1287Y1591D02*
X1310Y1591D01*
X1287Y1590D02*
X1310Y1590D01*
X1287Y1589D02*
X1310Y1589D01*
X1287Y1588D02*
X1310Y1588D01*
X1287Y1587D02*
X1310Y1587D01*
X1287Y1586D02*
X1310Y1586D01*
X1287Y1585D02*
X1310Y1585D01*
X1287Y1584D02*
X1310Y1584D01*
X1287Y1583D02*
X1310Y1583D01*
X1287Y1582D02*
X1310Y1582D01*
X1287Y1581D02*
X1310Y1581D01*
X1287Y1580D02*
X1310Y1580D01*
X1287Y1579D02*
X1310Y1579D01*
X1287Y1578D02*
X1310Y1578D01*
X1287Y1577D02*
X1310Y1577D01*
X1287Y1576D02*
X1310Y1576D01*
X1287Y1575D02*
X1310Y1575D01*
X1287Y1574D02*
X1310Y1574D01*
X1287Y1573D02*
X1310Y1573D01*
X1287Y1572D02*
X1310Y1572D01*
X1287Y1571D02*
X1310Y1571D01*
X1287Y1570D02*
X1310Y1570D01*
X1287Y1569D02*
X1310Y1569D01*
X1287Y1568D02*
X1310Y1568D01*
X1287Y1567D02*
X1310Y1567D01*
X1287Y1566D02*
X1310Y1566D01*
X1287Y1565D02*
X1310Y1565D01*
X1287Y1564D02*
X1310Y1564D01*
X1287Y1563D02*
X1310Y1563D01*
X1287Y1562D02*
X1310Y1562D01*
X1287Y1561D02*
X1310Y1561D01*
X1287Y1560D02*
X1310Y1560D01*
X1287Y1559D02*
X1310Y1559D01*
X1287Y1558D02*
X1310Y1558D01*
X1287Y1557D02*
X1310Y1557D01*
X1287Y1556D02*
X1310Y1556D01*
X1287Y1555D02*
X1310Y1555D01*
X1287Y1554D02*
X1310Y1554D01*
X1287Y1553D02*
X1310Y1553D01*
X1287Y1552D02*
X1310Y1552D01*
X1287Y1551D02*
X1310Y1551D01*
X1287Y1550D02*
X1310Y1550D01*
X1287Y1549D02*
X1310Y1549D01*
X1287Y1548D02*
X1310Y1548D01*
X1287Y1547D02*
X1310Y1547D01*
X1287Y1546D02*
X1310Y1546D01*
X1287Y1545D02*
X1310Y1545D01*
X1287Y1544D02*
X1310Y1544D01*
X1287Y1543D02*
X1310Y1543D01*
X1287Y1542D02*
X1310Y1542D01*
X1287Y1541D02*
X1310Y1541D01*
X1287Y1540D02*
X1310Y1540D01*
X1287Y1539D02*
X1310Y1539D01*
X1287Y1538D02*
X1310Y1538D01*
X1287Y1537D02*
X1310Y1537D01*
X1287Y1536D02*
X1310Y1536D01*
X1287Y1535D02*
X1310Y1535D01*
X1287Y1534D02*
X1310Y1534D01*
X1287Y1533D02*
X1310Y1533D01*
X1287Y1532D02*
X1310Y1532D01*
X1287Y1531D02*
X1310Y1531D01*
X1287Y1530D02*
X1310Y1530D01*
X1287Y1529D02*
X1310Y1529D01*
X1287Y1528D02*
X1310Y1528D01*
X1287Y1527D02*
X1310Y1527D01*
X1287Y1526D02*
X1310Y1526D01*
X1287Y1525D02*
X1310Y1525D01*
X1287Y1524D02*
X1310Y1524D01*
X1287Y1523D02*
X1310Y1523D01*
X1287Y1522D02*
X1310Y1522D01*
X1287Y1521D02*
X1310Y1521D01*
X1287Y1520D02*
X1310Y1520D01*
X1287Y1519D02*
X1310Y1519D01*
X1287Y1518D02*
X1310Y1518D01*
X1287Y1517D02*
X1310Y1517D01*
X1287Y1516D02*
X1310Y1516D01*
X1287Y1515D02*
X1310Y1515D01*
X1287Y1514D02*
X1310Y1514D01*
X1287Y1513D02*
X1310Y1513D01*
X1287Y1512D02*
X1310Y1512D01*
X1287Y1511D02*
X1310Y1511D01*
X1287Y1510D02*
X1310Y1510D01*
X1287Y1509D02*
X1310Y1509D01*
X1287Y1508D02*
X1310Y1508D01*
X1287Y1507D02*
X1310Y1507D01*
X1287Y1506D02*
X1310Y1506D01*
X1287Y1505D02*
X1310Y1505D01*
X1287Y1504D02*
X1310Y1504D01*
X1287Y1503D02*
X1310Y1503D01*
X1287Y1502D02*
X1310Y1502D01*
X1287Y1501D02*
X1310Y1501D01*
X1287Y1500D02*
X1310Y1500D01*
X1287Y1499D02*
X1310Y1499D01*
X1287Y1498D02*
X1310Y1498D01*
X1287Y1497D02*
X1310Y1497D01*
X1287Y1496D02*
X1310Y1496D01*
X1287Y1495D02*
X1310Y1495D01*
X1287Y1494D02*
X1310Y1494D01*
X1287Y1493D02*
X1310Y1493D01*
X1287Y1492D02*
X1310Y1492D01*
X1287Y1491D02*
X1310Y1491D01*
X1287Y1490D02*
X1310Y1490D01*
X1287Y1489D02*
X1310Y1489D01*
X1287Y1488D02*
X1310Y1488D01*
X1287Y1487D02*
X1310Y1487D01*
X1287Y1486D02*
X1310Y1486D01*
X1287Y1485D02*
X1310Y1485D01*
X1287Y1484D02*
X1310Y1484D01*
X1287Y1483D02*
X1310Y1483D01*
X1287Y1482D02*
X1310Y1482D01*
X1287Y1481D02*
X1310Y1481D01*
X1287Y1480D02*
X1310Y1480D01*
X1287Y1479D02*
X1310Y1479D01*
X1287Y1478D02*
X1310Y1478D01*
X1287Y1477D02*
X1310Y1477D01*
X1287Y1476D02*
X1310Y1476D01*
X1287Y1475D02*
X1310Y1475D01*
X1287Y1474D02*
X1310Y1474D01*
X1287Y1473D02*
X1310Y1473D01*
X1287Y1472D02*
X1310Y1472D01*
X1287Y1471D02*
X1310Y1471D01*
X1287Y1470D02*
X1310Y1470D01*
X1287Y1469D02*
X1310Y1469D01*
X1287Y1468D02*
X1310Y1468D01*
X1287Y1467D02*
X1310Y1467D01*
X1287Y1466D02*
X1310Y1466D01*
X1287Y1465D02*
X1310Y1465D01*
X1287Y1464D02*
X1310Y1464D01*
X1287Y1463D02*
X1310Y1463D01*
X1287Y1462D02*
X1310Y1462D01*
X1287Y1461D02*
X1310Y1461D01*
X1287Y1460D02*
X1310Y1460D01*
X1287Y1459D02*
X1310Y1459D01*
X1287Y1458D02*
X1310Y1458D01*
X1287Y1457D02*
X1310Y1457D01*
X1287Y1456D02*
X1310Y1456D01*
X1287Y1455D02*
X1310Y1455D01*
X1287Y1454D02*
X1310Y1454D01*
X1287Y1453D02*
X1310Y1453D01*
X1287Y1452D02*
X1310Y1452D01*
X1287Y1451D02*
X1310Y1451D01*
X1287Y1450D02*
X1310Y1450D01*
X1287Y1449D02*
X1310Y1449D01*
X1287Y1448D02*
X1310Y1448D01*
X1287Y1447D02*
X1310Y1447D01*
X1287Y1446D02*
X1310Y1446D01*
X1287Y1445D02*
X1310Y1445D01*
X1287Y1444D02*
X1310Y1444D01*
X1287Y1443D02*
X1310Y1443D01*
X1287Y1442D02*
X1310Y1442D01*
X1287Y1441D02*
X1310Y1441D01*
X1287Y1440D02*
X1310Y1440D01*
X1287Y1439D02*
X1310Y1439D01*
X1287Y1438D02*
X1310Y1438D01*
X1287Y1437D02*
X1310Y1437D01*
X1287Y1436D02*
X1310Y1436D01*
X1287Y1435D02*
X1310Y1435D01*
X1287Y1434D02*
X1310Y1434D01*
X1287Y1433D02*
X1310Y1433D01*
X1287Y1432D02*
X1310Y1432D01*
X1287Y1431D02*
X1310Y1431D01*
X1287Y1430D02*
X1310Y1430D01*
X1287Y1429D02*
X1310Y1429D01*
X1287Y1428D02*
X1310Y1428D01*
X1287Y1427D02*
X1310Y1427D01*
X1287Y1426D02*
X1310Y1426D01*
X1287Y1425D02*
X1310Y1425D01*
X1287Y1424D02*
X1310Y1424D01*
X1287Y1423D02*
X1310Y1423D01*
X1287Y1422D02*
X1310Y1422D01*
X1287Y1421D02*
X1310Y1421D01*
X1287Y1420D02*
X1310Y1420D01*
X1287Y1419D02*
X1310Y1419D01*
X1287Y1418D02*
X1310Y1418D01*
X1287Y1417D02*
X1310Y1417D01*
X1287Y1416D02*
X1310Y1416D01*
X1287Y1415D02*
X1310Y1415D01*
X1287Y1414D02*
X1310Y1414D01*
X1287Y1413D02*
X1310Y1413D01*
X1287Y1412D02*
X1310Y1412D01*
X1287Y1411D02*
X1310Y1411D01*
X1287Y1410D02*
X1310Y1410D01*
X1287Y1409D02*
X1310Y1409D01*
X1287Y1408D02*
X1310Y1408D01*
X1287Y1407D02*
X1310Y1407D01*
X1287Y1406D02*
X1310Y1406D01*
X1287Y1405D02*
X1310Y1405D01*
X1287Y1404D02*
X1310Y1404D01*
X1287Y1403D02*
X1310Y1403D01*
X1287Y1402D02*
X1310Y1402D01*
X1287Y1401D02*
X1310Y1401D01*
X1287Y1400D02*
X1310Y1400D01*
X1287Y1399D02*
X1310Y1399D01*
X1287Y1398D02*
X1310Y1398D01*
X1287Y1397D02*
X1310Y1397D01*
X1287Y1396D02*
X1310Y1396D01*
X1287Y1395D02*
X1310Y1395D01*
X1287Y1394D02*
X1310Y1394D01*
X1287Y1393D02*
X1310Y1393D01*
X1287Y1392D02*
X1310Y1392D01*
X1287Y1391D02*
X1310Y1391D01*
X1287Y1390D02*
X1310Y1390D01*
X1287Y1389D02*
X1310Y1389D01*
X1287Y1388D02*
X1310Y1388D01*
X1287Y1387D02*
X1310Y1387D01*
X1287Y1386D02*
X1310Y1386D01*
X1287Y1385D02*
X1310Y1385D01*
X1287Y1384D02*
X1310Y1384D01*
X1287Y1383D02*
X1310Y1383D01*
X1287Y1382D02*
X1310Y1382D01*
X1287Y1381D02*
X1310Y1381D01*
X1287Y1380D02*
X1310Y1380D01*
X1287Y1379D02*
X1310Y1379D01*
X1287Y1378D02*
X1310Y1378D01*
X1287Y1377D02*
X1310Y1377D01*
X1287Y1376D02*
X1310Y1376D01*
X1287Y1375D02*
X1310Y1375D01*
X1287Y1374D02*
X1310Y1374D01*
X1287Y1373D02*
X1310Y1373D01*
X1287Y1372D02*
X1310Y1372D01*
X1287Y1371D02*
X1310Y1371D01*
X1287Y1370D02*
X1310Y1370D01*
X1287Y1369D02*
X1310Y1369D01*
X1287Y1368D02*
X1310Y1368D01*
X1287Y1367D02*
X1310Y1367D01*
X1287Y1366D02*
X1310Y1366D01*
X1287Y1365D02*
X1310Y1365D01*
X1287Y1364D02*
X1310Y1364D01*
X1287Y1363D02*
X1310Y1363D01*
X1287Y1362D02*
X1310Y1362D01*
X1287Y1361D02*
X1310Y1361D01*
X1287Y1360D02*
X1310Y1360D01*
X1287Y1359D02*
X1310Y1359D01*
X1287Y1358D02*
X1310Y1358D01*
X1287Y1357D02*
X1310Y1357D01*
X1287Y1356D02*
X1310Y1356D01*
X1287Y1355D02*
X1310Y1355D01*
X1287Y1354D02*
X1310Y1354D01*
X1287Y1353D02*
X1310Y1353D01*
X1287Y1352D02*
X1310Y1352D01*
X1287Y1351D02*
X1310Y1351D01*
X1287Y1350D02*
X1310Y1350D01*
X1287Y1349D02*
X1310Y1349D01*
X1287Y1348D02*
X1310Y1348D01*
X1287Y1347D02*
X1310Y1347D01*
X1287Y1346D02*
X1310Y1346D01*
X1287Y1345D02*
X1310Y1345D01*
X1287Y1344D02*
X1310Y1344D01*
X1287Y1343D02*
X1310Y1343D01*
X1287Y1342D02*
X1310Y1342D01*
X1287Y1341D02*
X1310Y1341D01*
X1287Y1340D02*
X1310Y1340D01*
X1287Y1339D02*
X1310Y1339D01*
X1287Y1338D02*
X1310Y1338D01*
X1287Y1337D02*
X1310Y1337D01*
X1287Y1336D02*
X1310Y1336D01*
X1287Y1335D02*
X1310Y1335D01*
X1287Y1334D02*
X1310Y1334D01*
X1287Y1333D02*
X1310Y1333D01*
X1287Y1332D02*
X1310Y1332D01*
X1287Y1331D02*
X1310Y1331D01*
X1287Y1330D02*
X1310Y1330D01*
X1287Y1329D02*
X1310Y1329D01*
X1287Y1328D02*
X1310Y1328D01*
X1287Y1327D02*
X1310Y1327D01*
X1287Y1326D02*
X1310Y1326D01*
X1287Y1325D02*
X1310Y1325D01*
X1288Y1324D02*
X1310Y1324D01*
X1288Y1323D02*
X1309Y1323D01*
X1289Y1322D02*
X1309Y1322D01*
X1289Y1321D02*
X1308Y1321D01*
X1290Y1320D02*
X1308Y1320D01*
X1291Y1319D02*
X1307Y1319D01*
X1292Y1318D02*
X1306Y1318D01*
X1293Y1317D02*
X1304Y1317D01*
X1296Y1316D02*
X1302Y1316D01*
X1364Y1057D02*
X1433Y1057D01*
X1360Y1056D02*
X1437Y1056D01*
X1357Y1055D02*
X1440Y1055D01*
X1355Y1054D02*
X1442Y1054D01*
X1353Y1053D02*
X1444Y1053D01*
X1352Y1052D02*
X1445Y1052D01*
X1351Y1051D02*
X1447Y1051D01*
X1349Y1050D02*
X1448Y1050D01*
X1348Y1049D02*
X1449Y1049D01*
X1347Y1048D02*
X1450Y1048D01*
X1346Y1047D02*
X1394Y1047D01*
X1403Y1047D02*
X1451Y1047D01*
X1346Y1046D02*
X1391Y1046D01*
X1407Y1046D02*
X1452Y1046D01*
X1345Y1045D02*
X1389Y1045D01*
X1409Y1045D02*
X1452Y1045D01*
X1344Y1044D02*
X1387Y1044D01*
X1410Y1044D02*
X1453Y1044D01*
X1344Y1043D02*
X1386Y1043D01*
X1412Y1043D02*
X1454Y1043D01*
X1343Y1042D02*
X1385Y1042D01*
X1413Y1042D02*
X1454Y1042D01*
X1342Y1041D02*
X1384Y1041D01*
X1414Y1041D02*
X1455Y1041D01*
X1342Y1040D02*
X1383Y1040D01*
X1415Y1040D02*
X1455Y1040D01*
X1342Y1039D02*
X1382Y1039D01*
X1415Y1039D02*
X1456Y1039D01*
X1341Y1038D02*
X1381Y1038D01*
X1416Y1038D02*
X1456Y1038D01*
X1341Y1037D02*
X1381Y1037D01*
X1417Y1037D02*
X1457Y1037D01*
X1340Y1036D02*
X1380Y1036D01*
X1417Y1036D02*
X1457Y1036D01*
X1340Y1035D02*
X1380Y1035D01*
X1418Y1035D02*
X1457Y1035D01*
X1340Y1034D02*
X1379Y1034D01*
X1418Y1034D02*
X1457Y1034D01*
X1340Y1033D02*
X1379Y1033D01*
X1418Y1033D02*
X1458Y1033D01*
X1340Y1032D02*
X1379Y1032D01*
X1419Y1032D02*
X1458Y1032D01*
X1339Y1031D02*
X1379Y1031D01*
X1419Y1031D02*
X1458Y1031D01*
X1339Y1030D02*
X1378Y1030D01*
X1419Y1030D02*
X1458Y1030D01*
X1339Y1029D02*
X1378Y1029D01*
X1419Y1029D02*
X1458Y1029D01*
X1339Y1028D02*
X1378Y1028D01*
X1419Y1028D02*
X1458Y1028D01*
X1339Y1027D02*
X1378Y1027D01*
X1419Y1027D02*
X1458Y1027D01*
X1339Y1026D02*
X1378Y1026D01*
X1419Y1026D02*
X1458Y1026D01*
X1339Y1025D02*
X1378Y1025D01*
X1419Y1025D02*
X1458Y1025D01*
X1339Y1024D02*
X1379Y1024D01*
X1419Y1024D02*
X1458Y1024D01*
X1340Y1023D02*
X1379Y1023D01*
X1419Y1023D02*
X1458Y1023D01*
X1340Y1022D02*
X1379Y1022D01*
X1418Y1022D02*
X1458Y1022D01*
X1340Y1021D02*
X1379Y1021D01*
X1418Y1021D02*
X1457Y1021D01*
X1340Y1020D02*
X1380Y1020D01*
X1418Y1020D02*
X1457Y1020D01*
X1340Y1019D02*
X1380Y1019D01*
X1417Y1019D02*
X1457Y1019D01*
X1341Y1018D02*
X1381Y1018D01*
X1417Y1018D02*
X1457Y1018D01*
X1341Y1017D02*
X1381Y1017D01*
X1416Y1017D02*
X1456Y1017D01*
X1341Y1016D02*
X1382Y1016D01*
X1415Y1016D02*
X1456Y1016D01*
X1342Y1015D02*
X1383Y1015D01*
X1415Y1015D02*
X1455Y1015D01*
X1342Y1014D02*
X1384Y1014D01*
X1414Y1014D02*
X1455Y1014D01*
X1343Y1013D02*
X1384Y1013D01*
X1413Y1013D02*
X1454Y1013D01*
X1344Y1012D02*
X1386Y1012D01*
X1412Y1012D02*
X1454Y1012D01*
X1344Y1011D02*
X1387Y1011D01*
X1410Y1011D02*
X1453Y1011D01*
X1345Y1010D02*
X1389Y1010D01*
X1409Y1010D02*
X1452Y1010D01*
X1346Y1009D02*
X1391Y1009D01*
X1407Y1009D02*
X1452Y1009D01*
X1346Y1008D02*
X1394Y1008D01*
X1403Y1008D02*
X1451Y1008D01*
X1347Y1007D02*
X1450Y1007D01*
X1348Y1006D02*
X1449Y1006D01*
X1349Y1005D02*
X1448Y1005D01*
X1351Y1004D02*
X1447Y1004D01*
X1352Y1003D02*
X1445Y1003D01*
X1353Y1002D02*
X1444Y1002D01*
X1355Y1001D02*
X1442Y1001D01*
X1357Y1000D02*
X1440Y1000D01*
X1360Y999D02*
X1438Y999D01*
X1364Y998D02*
X1434Y998D01*
X1364Y957D02*
X1434Y957D01*
X1360Y956D02*
X1438Y956D01*
X1357Y955D02*
X1440Y955D01*
X1355Y954D02*
X1442Y954D01*
X1353Y953D02*
X1444Y953D01*
X1352Y952D02*
X1445Y952D01*
X1351Y951D02*
X1447Y951D01*
X1349Y950D02*
X1448Y950D01*
X1348Y949D02*
X1449Y949D01*
X1347Y948D02*
X1450Y948D01*
X1346Y947D02*
X1394Y947D01*
X1404Y947D02*
X1451Y947D01*
X1346Y946D02*
X1391Y946D01*
X1407Y946D02*
X1452Y946D01*
X1345Y945D02*
X1389Y945D01*
X1409Y945D02*
X1453Y945D01*
X1344Y944D02*
X1387Y944D01*
X1410Y944D02*
X1453Y944D01*
X1344Y943D02*
X1386Y943D01*
X1412Y943D02*
X1454Y943D01*
X1343Y942D02*
X1384Y942D01*
X1413Y942D02*
X1454Y942D01*
X1342Y941D02*
X1384Y941D01*
X1414Y941D02*
X1455Y941D01*
X1342Y940D02*
X1383Y940D01*
X1415Y940D02*
X1455Y940D01*
X1341Y939D02*
X1382Y939D01*
X1416Y939D02*
X1456Y939D01*
X1341Y938D02*
X1381Y938D01*
X1416Y938D02*
X1456Y938D01*
X1341Y937D02*
X1381Y937D01*
X1417Y937D02*
X1457Y937D01*
X1340Y936D02*
X1380Y936D01*
X1417Y936D02*
X1457Y936D01*
X1340Y935D02*
X1380Y935D01*
X1418Y935D02*
X1457Y935D01*
X1340Y934D02*
X1379Y934D01*
X1418Y934D02*
X1457Y934D01*
X1340Y933D02*
X1379Y933D01*
X1418Y933D02*
X1458Y933D01*
X1340Y932D02*
X1379Y932D01*
X1419Y932D02*
X1458Y932D01*
X1339Y931D02*
X1379Y931D01*
X1419Y931D02*
X1458Y931D01*
X1339Y930D02*
X1378Y930D01*
X1419Y930D02*
X1458Y930D01*
X1339Y929D02*
X1378Y929D01*
X1419Y929D02*
X1458Y929D01*
X1339Y928D02*
X1378Y928D01*
X1419Y928D02*
X1458Y928D01*
X1339Y927D02*
X1378Y927D01*
X1419Y927D02*
X1458Y927D01*
X1339Y926D02*
X1378Y926D01*
X1419Y926D02*
X1458Y926D01*
X1339Y925D02*
X1378Y925D01*
X1419Y925D02*
X1458Y925D01*
X1339Y924D02*
X1379Y924D01*
X1419Y924D02*
X1458Y924D01*
X1340Y923D02*
X1379Y923D01*
X1419Y923D02*
X1458Y923D01*
X1340Y922D02*
X1379Y922D01*
X1418Y922D02*
X1458Y922D01*
X1340Y921D02*
X1379Y921D01*
X1418Y921D02*
X1457Y921D01*
X1340Y920D02*
X1380Y920D01*
X1418Y920D02*
X1457Y920D01*
X1340Y919D02*
X1380Y919D01*
X1417Y919D02*
X1457Y919D01*
X1341Y918D02*
X1381Y918D01*
X1417Y918D02*
X1457Y918D01*
X1341Y917D02*
X1381Y917D01*
X1416Y917D02*
X1456Y917D01*
X1342Y916D02*
X1382Y916D01*
X1415Y916D02*
X1456Y916D01*
X1342Y915D02*
X1383Y915D01*
X1415Y915D02*
X1455Y915D01*
X1342Y914D02*
X1384Y914D01*
X1414Y914D02*
X1455Y914D01*
X1343Y913D02*
X1385Y913D01*
X1413Y913D02*
X1454Y913D01*
X1344Y912D02*
X1386Y912D01*
X1412Y912D02*
X1454Y912D01*
X1344Y911D02*
X1387Y911D01*
X1410Y911D02*
X1453Y911D01*
X1345Y910D02*
X1389Y910D01*
X1409Y910D02*
X1452Y910D01*
X1346Y909D02*
X1391Y909D01*
X1407Y909D02*
X1452Y909D01*
X1346Y908D02*
X1394Y908D01*
X1403Y908D02*
X1451Y908D01*
X1347Y907D02*
X1450Y907D01*
X1348Y906D02*
X1449Y906D01*
X1349Y905D02*
X1448Y905D01*
X1351Y904D02*
X1447Y904D01*
X1352Y903D02*
X1445Y903D01*
X1354Y902D02*
X1444Y902D01*
X1355Y901D02*
X1442Y901D01*
X1357Y900D02*
X1440Y900D01*
X1360Y899D02*
X1437Y899D01*
X1364Y898D02*
X1433Y898D01*
X1364Y857D02*
X1434Y857D01*
X1360Y856D02*
X1438Y856D01*
X1357Y855D02*
X1440Y855D01*
X1355Y854D02*
X1442Y854D01*
X1353Y853D02*
X1444Y853D01*
X1352Y852D02*
X1446Y852D01*
X1351Y851D02*
X1447Y851D01*
X1349Y850D02*
X1448Y850D01*
X1348Y849D02*
X1449Y849D01*
X1347Y848D02*
X1450Y848D01*
X1346Y847D02*
X1394Y847D01*
X1404Y847D02*
X1451Y847D01*
X1346Y846D02*
X1391Y846D01*
X1407Y846D02*
X1452Y846D01*
X1345Y845D02*
X1389Y845D01*
X1409Y845D02*
X1453Y845D01*
X1344Y844D02*
X1387Y844D01*
X1411Y844D02*
X1453Y844D01*
X1344Y843D02*
X1386Y843D01*
X1412Y843D02*
X1454Y843D01*
X1343Y842D02*
X1384Y842D01*
X1413Y842D02*
X1454Y842D01*
X1342Y841D02*
X1383Y841D01*
X1414Y841D02*
X1455Y841D01*
X1342Y840D02*
X1383Y840D01*
X1415Y840D02*
X1455Y840D01*
X1341Y839D02*
X1382Y839D01*
X1416Y839D02*
X1456Y839D01*
X1341Y838D02*
X1381Y838D01*
X1416Y838D02*
X1456Y838D01*
X1341Y837D02*
X1381Y837D01*
X1417Y837D02*
X1457Y837D01*
X1340Y836D02*
X1380Y836D01*
X1417Y836D02*
X1457Y836D01*
X1340Y835D02*
X1380Y835D01*
X1418Y835D02*
X1457Y835D01*
X1340Y834D02*
X1379Y834D01*
X1418Y834D02*
X1457Y834D01*
X1340Y833D02*
X1379Y833D01*
X1418Y833D02*
X1458Y833D01*
X1340Y832D02*
X1379Y832D01*
X1419Y832D02*
X1458Y832D01*
X1339Y831D02*
X1379Y831D01*
X1419Y831D02*
X1458Y831D01*
X1339Y830D02*
X1378Y830D01*
X1419Y830D02*
X1458Y830D01*
X1339Y829D02*
X1378Y829D01*
X1419Y829D02*
X1458Y829D01*
X1339Y828D02*
X1378Y828D01*
X1419Y828D02*
X1458Y828D01*
X1339Y827D02*
X1378Y827D01*
X1419Y827D02*
X1458Y827D01*
X1339Y826D02*
X1378Y826D01*
X1419Y826D02*
X1458Y826D01*
X1339Y825D02*
X1378Y825D01*
X1419Y825D02*
X1458Y825D01*
X1339Y824D02*
X1379Y824D01*
X1419Y824D02*
X1458Y824D01*
X1340Y823D02*
X1379Y823D01*
X1419Y823D02*
X1458Y823D01*
X1340Y822D02*
X1379Y822D01*
X1418Y822D02*
X1458Y822D01*
X1340Y821D02*
X1379Y821D01*
X1418Y821D02*
X1457Y821D01*
X1340Y820D02*
X1380Y820D01*
X1418Y820D02*
X1457Y820D01*
X1340Y819D02*
X1380Y819D01*
X1417Y819D02*
X1457Y819D01*
X1341Y818D02*
X1381Y818D01*
X1417Y818D02*
X1457Y818D01*
X1341Y817D02*
X1381Y817D01*
X1416Y817D02*
X1456Y817D01*
X1342Y816D02*
X1382Y816D01*
X1415Y816D02*
X1456Y816D01*
X1342Y815D02*
X1383Y815D01*
X1415Y815D02*
X1455Y815D01*
X1342Y814D02*
X1384Y814D01*
X1414Y814D02*
X1455Y814D01*
X145Y813D02*
X152Y813D01*
X245Y813D02*
X252Y813D01*
X345Y813D02*
X352Y813D01*
X1343Y813D02*
X1385Y813D01*
X1413Y813D02*
X1454Y813D01*
X140Y812D02*
X157Y812D01*
X240Y812D02*
X256Y812D01*
X340Y812D02*
X356Y812D01*
X1344Y812D02*
X1386Y812D01*
X1412Y812D02*
X1454Y812D01*
X137Y811D02*
X159Y811D01*
X237Y811D02*
X259Y811D01*
X337Y811D02*
X359Y811D01*
X1344Y811D02*
X1387Y811D01*
X1410Y811D02*
X1453Y811D01*
X135Y810D02*
X161Y810D01*
X235Y810D02*
X261Y810D01*
X335Y810D02*
X361Y810D01*
X1345Y810D02*
X1389Y810D01*
X1409Y810D02*
X1452Y810D01*
X133Y809D02*
X163Y809D01*
X233Y809D02*
X263Y809D01*
X333Y809D02*
X363Y809D01*
X1346Y809D02*
X1391Y809D01*
X1407Y809D02*
X1452Y809D01*
X132Y808D02*
X165Y808D01*
X232Y808D02*
X265Y808D01*
X332Y808D02*
X365Y808D01*
X1346Y808D02*
X1394Y808D01*
X1403Y808D02*
X1451Y808D01*
X131Y807D02*
X166Y807D01*
X230Y807D02*
X266Y807D01*
X330Y807D02*
X366Y807D01*
X1347Y807D02*
X1450Y807D01*
X129Y806D02*
X167Y806D01*
X229Y806D02*
X267Y806D01*
X329Y806D02*
X367Y806D01*
X1348Y806D02*
X1449Y806D01*
X128Y805D02*
X169Y805D01*
X228Y805D02*
X268Y805D01*
X328Y805D02*
X368Y805D01*
X1349Y805D02*
X1448Y805D01*
X127Y804D02*
X170Y804D01*
X227Y804D02*
X269Y804D01*
X327Y804D02*
X369Y804D01*
X1351Y804D02*
X1447Y804D01*
X126Y803D02*
X170Y803D01*
X226Y803D02*
X270Y803D01*
X326Y803D02*
X370Y803D01*
X1352Y803D02*
X1445Y803D01*
X125Y802D02*
X171Y802D01*
X225Y802D02*
X271Y802D01*
X325Y802D02*
X371Y802D01*
X1354Y802D02*
X1444Y802D01*
X125Y801D02*
X172Y801D01*
X225Y801D02*
X272Y801D01*
X325Y801D02*
X372Y801D01*
X1355Y801D02*
X1442Y801D01*
X124Y800D02*
X173Y800D01*
X224Y800D02*
X273Y800D01*
X324Y800D02*
X373Y800D01*
X1357Y800D02*
X1440Y800D01*
X123Y799D02*
X173Y799D01*
X223Y799D02*
X273Y799D01*
X323Y799D02*
X373Y799D01*
X1360Y799D02*
X1437Y799D01*
X123Y798D02*
X174Y798D01*
X223Y798D02*
X274Y798D01*
X323Y798D02*
X374Y798D01*
X1364Y798D02*
X1433Y798D01*
X122Y797D02*
X174Y797D01*
X222Y797D02*
X274Y797D01*
X322Y797D02*
X374Y797D01*
X122Y796D02*
X175Y796D01*
X222Y796D02*
X275Y796D01*
X322Y796D02*
X375Y796D01*
X121Y795D02*
X175Y795D01*
X221Y795D02*
X275Y795D01*
X321Y795D02*
X375Y795D01*
X121Y794D02*
X176Y794D01*
X221Y794D02*
X276Y794D01*
X321Y794D02*
X376Y794D01*
X120Y793D02*
X176Y793D01*
X220Y793D02*
X276Y793D01*
X320Y793D02*
X376Y793D01*
X120Y792D02*
X177Y792D01*
X220Y792D02*
X276Y792D01*
X320Y792D02*
X376Y792D01*
X120Y791D02*
X177Y791D01*
X220Y791D02*
X277Y791D01*
X320Y791D02*
X377Y791D01*
X120Y790D02*
X177Y790D01*
X220Y790D02*
X277Y790D01*
X320Y790D02*
X377Y790D01*
X119Y789D02*
X177Y789D01*
X219Y789D02*
X277Y789D01*
X319Y789D02*
X377Y789D01*
X119Y788D02*
X177Y788D01*
X219Y788D02*
X277Y788D01*
X319Y788D02*
X377Y788D01*
X119Y787D02*
X178Y787D01*
X219Y787D02*
X278Y787D01*
X319Y787D02*
X377Y787D01*
X119Y786D02*
X178Y786D01*
X219Y786D02*
X278Y786D01*
X319Y786D02*
X378Y786D01*
X119Y785D02*
X178Y785D01*
X219Y785D02*
X278Y785D01*
X319Y785D02*
X378Y785D01*
X119Y784D02*
X178Y784D01*
X219Y784D02*
X278Y784D01*
X319Y784D02*
X378Y784D01*
X119Y783D02*
X178Y783D01*
X219Y783D02*
X278Y783D01*
X319Y783D02*
X378Y783D01*
X119Y782D02*
X178Y782D01*
X219Y782D02*
X278Y782D01*
X319Y782D02*
X378Y782D01*
X119Y781D02*
X178Y781D01*
X219Y781D02*
X278Y781D01*
X319Y781D02*
X378Y781D01*
X119Y780D02*
X178Y780D01*
X219Y780D02*
X278Y780D01*
X319Y780D02*
X378Y780D01*
X119Y779D02*
X178Y779D01*
X219Y779D02*
X278Y779D01*
X319Y779D02*
X378Y779D01*
X119Y778D02*
X178Y778D01*
X219Y778D02*
X278Y778D01*
X319Y778D02*
X378Y778D01*
X119Y777D02*
X178Y777D01*
X219Y777D02*
X278Y777D01*
X319Y777D02*
X378Y777D01*
X119Y776D02*
X178Y776D01*
X219Y776D02*
X278Y776D01*
X319Y776D02*
X378Y776D01*
X119Y775D02*
X178Y775D01*
X219Y775D02*
X278Y775D01*
X319Y775D02*
X378Y775D01*
X119Y774D02*
X178Y774D01*
X219Y774D02*
X278Y774D01*
X319Y774D02*
X378Y774D01*
X119Y773D02*
X145Y773D01*
X152Y773D02*
X178Y773D01*
X219Y773D02*
X245Y773D01*
X252Y773D02*
X278Y773D01*
X319Y773D02*
X345Y773D01*
X352Y773D02*
X378Y773D01*
X119Y772D02*
X141Y772D01*
X156Y772D02*
X178Y772D01*
X219Y772D02*
X241Y772D01*
X256Y772D02*
X278Y772D01*
X319Y772D02*
X341Y772D01*
X356Y772D02*
X378Y772D01*
X119Y771D02*
X139Y771D01*
X158Y771D02*
X178Y771D01*
X219Y771D02*
X239Y771D01*
X258Y771D02*
X278Y771D01*
X319Y771D02*
X339Y771D01*
X358Y771D02*
X378Y771D01*
X119Y770D02*
X137Y770D01*
X160Y770D02*
X178Y770D01*
X219Y770D02*
X237Y770D01*
X260Y770D02*
X278Y770D01*
X319Y770D02*
X337Y770D01*
X360Y770D02*
X378Y770D01*
X119Y769D02*
X136Y769D01*
X161Y769D02*
X178Y769D01*
X219Y769D02*
X236Y769D01*
X261Y769D02*
X278Y769D01*
X319Y769D02*
X335Y769D01*
X361Y769D02*
X378Y769D01*
X119Y768D02*
X134Y768D01*
X162Y768D02*
X178Y768D01*
X219Y768D02*
X234Y768D01*
X262Y768D02*
X278Y768D01*
X319Y768D02*
X334Y768D01*
X362Y768D02*
X378Y768D01*
X119Y767D02*
X133Y767D01*
X163Y767D02*
X178Y767D01*
X219Y767D02*
X233Y767D01*
X263Y767D02*
X278Y767D01*
X319Y767D02*
X333Y767D01*
X363Y767D02*
X378Y767D01*
X119Y766D02*
X133Y766D01*
X164Y766D02*
X178Y766D01*
X219Y766D02*
X232Y766D01*
X264Y766D02*
X278Y766D01*
X319Y766D02*
X332Y766D01*
X364Y766D02*
X378Y766D01*
X119Y765D02*
X132Y765D01*
X165Y765D02*
X178Y765D01*
X219Y765D02*
X232Y765D01*
X265Y765D02*
X278Y765D01*
X319Y765D02*
X332Y765D01*
X365Y765D02*
X378Y765D01*
X119Y764D02*
X131Y764D01*
X166Y764D02*
X178Y764D01*
X219Y764D02*
X231Y764D01*
X266Y764D02*
X278Y764D01*
X319Y764D02*
X331Y764D01*
X366Y764D02*
X378Y764D01*
X119Y763D02*
X130Y763D01*
X166Y763D02*
X178Y763D01*
X219Y763D02*
X230Y763D01*
X266Y763D02*
X278Y763D01*
X319Y763D02*
X330Y763D01*
X366Y763D02*
X378Y763D01*
X119Y762D02*
X130Y762D01*
X167Y762D02*
X178Y762D01*
X219Y762D02*
X230Y762D01*
X267Y762D02*
X278Y762D01*
X319Y762D02*
X330Y762D01*
X367Y762D02*
X378Y762D01*
X119Y761D02*
X129Y761D01*
X167Y761D02*
X178Y761D01*
X219Y761D02*
X229Y761D01*
X267Y761D02*
X278Y761D01*
X319Y761D02*
X329Y761D01*
X367Y761D02*
X378Y761D01*
X119Y760D02*
X129Y760D01*
X168Y760D02*
X178Y760D01*
X219Y760D02*
X229Y760D01*
X268Y760D02*
X278Y760D01*
X319Y760D02*
X329Y760D01*
X368Y760D02*
X378Y760D01*
X119Y759D02*
X129Y759D01*
X168Y759D02*
X178Y759D01*
X219Y759D02*
X229Y759D01*
X268Y759D02*
X278Y759D01*
X319Y759D02*
X329Y759D01*
X368Y759D02*
X378Y759D01*
X119Y758D02*
X128Y758D01*
X168Y758D02*
X178Y758D01*
X219Y758D02*
X228Y758D01*
X268Y758D02*
X278Y758D01*
X319Y758D02*
X328Y758D01*
X368Y758D02*
X378Y758D01*
X119Y757D02*
X128Y757D01*
X168Y757D02*
X178Y757D01*
X219Y757D02*
X228Y757D01*
X268Y757D02*
X278Y757D01*
X319Y757D02*
X328Y757D01*
X368Y757D02*
X378Y757D01*
X119Y756D02*
X128Y756D01*
X169Y756D02*
X178Y756D01*
X219Y756D02*
X228Y756D01*
X269Y756D02*
X278Y756D01*
X319Y756D02*
X328Y756D01*
X368Y756D02*
X378Y756D01*
X119Y755D02*
X128Y755D01*
X169Y755D02*
X178Y755D01*
X219Y755D02*
X228Y755D01*
X269Y755D02*
X278Y755D01*
X319Y755D02*
X328Y755D01*
X369Y755D02*
X378Y755D01*
X119Y754D02*
X128Y754D01*
X169Y754D02*
X178Y754D01*
X219Y754D02*
X228Y754D01*
X269Y754D02*
X278Y754D01*
X319Y754D02*
X328Y754D01*
X369Y754D02*
X378Y754D01*
X119Y753D02*
X128Y753D01*
X169Y753D02*
X178Y753D01*
X219Y753D02*
X228Y753D01*
X269Y753D02*
X278Y753D01*
X319Y753D02*
X328Y753D01*
X369Y753D02*
X378Y753D01*
X119Y752D02*
X128Y752D01*
X169Y752D02*
X178Y752D01*
X219Y752D02*
X228Y752D01*
X269Y752D02*
X278Y752D01*
X319Y752D02*
X328Y752D01*
X369Y752D02*
X378Y752D01*
X119Y751D02*
X128Y751D01*
X169Y751D02*
X178Y751D01*
X219Y751D02*
X228Y751D01*
X269Y751D02*
X278Y751D01*
X319Y751D02*
X328Y751D01*
X369Y751D02*
X378Y751D01*
X119Y750D02*
X128Y750D01*
X168Y750D02*
X178Y750D01*
X219Y750D02*
X228Y750D01*
X268Y750D02*
X278Y750D01*
X319Y750D02*
X328Y750D01*
X368Y750D02*
X378Y750D01*
X119Y749D02*
X128Y749D01*
X168Y749D02*
X178Y749D01*
X219Y749D02*
X228Y749D01*
X268Y749D02*
X278Y749D01*
X319Y749D02*
X328Y749D01*
X368Y749D02*
X378Y749D01*
X119Y748D02*
X129Y748D01*
X168Y748D02*
X178Y748D01*
X219Y748D02*
X229Y748D01*
X268Y748D02*
X278Y748D01*
X319Y748D02*
X329Y748D01*
X368Y748D02*
X378Y748D01*
X119Y747D02*
X129Y747D01*
X168Y747D02*
X178Y747D01*
X219Y747D02*
X229Y747D01*
X268Y747D02*
X278Y747D01*
X319Y747D02*
X329Y747D01*
X368Y747D02*
X378Y747D01*
X119Y746D02*
X129Y746D01*
X167Y746D02*
X178Y746D01*
X219Y746D02*
X229Y746D01*
X267Y746D02*
X278Y746D01*
X319Y746D02*
X329Y746D01*
X367Y746D02*
X378Y746D01*
X119Y745D02*
X130Y745D01*
X167Y745D02*
X178Y745D01*
X219Y745D02*
X230Y745D01*
X267Y745D02*
X278Y745D01*
X319Y745D02*
X330Y745D01*
X367Y745D02*
X378Y745D01*
X119Y744D02*
X130Y744D01*
X166Y744D02*
X178Y744D01*
X219Y744D02*
X230Y744D01*
X266Y744D02*
X278Y744D01*
X319Y744D02*
X330Y744D01*
X366Y744D02*
X378Y744D01*
X119Y743D02*
X131Y743D01*
X166Y743D02*
X178Y743D01*
X219Y743D02*
X231Y743D01*
X266Y743D02*
X278Y743D01*
X319Y743D02*
X331Y743D01*
X366Y743D02*
X378Y743D01*
X119Y742D02*
X131Y742D01*
X165Y742D02*
X178Y742D01*
X219Y742D02*
X231Y742D01*
X265Y742D02*
X278Y742D01*
X319Y742D02*
X331Y742D01*
X365Y742D02*
X378Y742D01*
X119Y741D02*
X132Y741D01*
X164Y741D02*
X178Y741D01*
X219Y741D02*
X232Y741D01*
X264Y741D02*
X278Y741D01*
X319Y741D02*
X332Y741D01*
X364Y741D02*
X378Y741D01*
X119Y740D02*
X133Y740D01*
X164Y740D02*
X178Y740D01*
X219Y740D02*
X233Y740D01*
X264Y740D02*
X278Y740D01*
X319Y740D02*
X333Y740D01*
X364Y740D02*
X378Y740D01*
X119Y739D02*
X134Y739D01*
X163Y739D02*
X178Y739D01*
X219Y739D02*
X234Y739D01*
X263Y739D02*
X278Y739D01*
X319Y739D02*
X334Y739D01*
X363Y739D02*
X378Y739D01*
X119Y738D02*
X135Y738D01*
X162Y738D02*
X178Y738D01*
X219Y738D02*
X235Y738D01*
X262Y738D02*
X278Y738D01*
X319Y738D02*
X335Y738D01*
X361Y738D02*
X378Y738D01*
X119Y737D02*
X136Y737D01*
X160Y737D02*
X178Y737D01*
X219Y737D02*
X236Y737D01*
X260Y737D02*
X278Y737D01*
X319Y737D02*
X336Y737D01*
X360Y737D02*
X378Y737D01*
X119Y736D02*
X138Y736D01*
X159Y736D02*
X178Y736D01*
X219Y736D02*
X238Y736D01*
X259Y736D02*
X278Y736D01*
X319Y736D02*
X338Y736D01*
X359Y736D02*
X378Y736D01*
X119Y735D02*
X140Y735D01*
X157Y735D02*
X178Y735D01*
X219Y735D02*
X240Y735D01*
X257Y735D02*
X278Y735D01*
X319Y735D02*
X340Y735D01*
X357Y735D02*
X378Y735D01*
X119Y734D02*
X143Y734D01*
X154Y734D02*
X178Y734D01*
X219Y734D02*
X243Y734D01*
X254Y734D02*
X278Y734D01*
X319Y734D02*
X343Y734D01*
X354Y734D02*
X378Y734D01*
X119Y733D02*
X178Y733D01*
X219Y733D02*
X278Y733D01*
X319Y733D02*
X378Y733D01*
X119Y732D02*
X178Y732D01*
X219Y732D02*
X278Y732D01*
X319Y732D02*
X378Y732D01*
X119Y731D02*
X178Y731D01*
X219Y731D02*
X278Y731D01*
X319Y731D02*
X378Y731D01*
X119Y730D02*
X178Y730D01*
X219Y730D02*
X278Y730D01*
X319Y730D02*
X378Y730D01*
X119Y729D02*
X178Y729D01*
X219Y729D02*
X278Y729D01*
X319Y729D02*
X378Y729D01*
X119Y728D02*
X178Y728D01*
X219Y728D02*
X278Y728D01*
X319Y728D02*
X378Y728D01*
X119Y727D02*
X178Y727D01*
X219Y727D02*
X278Y727D01*
X319Y727D02*
X378Y727D01*
X119Y726D02*
X178Y726D01*
X219Y726D02*
X278Y726D01*
X319Y726D02*
X378Y726D01*
X119Y725D02*
X178Y725D01*
X219Y725D02*
X278Y725D01*
X319Y725D02*
X378Y725D01*
X119Y724D02*
X178Y724D01*
X219Y724D02*
X278Y724D01*
X319Y724D02*
X378Y724D01*
X119Y723D02*
X178Y723D01*
X219Y723D02*
X278Y723D01*
X319Y723D02*
X378Y723D01*
X119Y722D02*
X178Y722D01*
X219Y722D02*
X278Y722D01*
X319Y722D02*
X378Y722D01*
X119Y721D02*
X178Y721D01*
X219Y721D02*
X278Y721D01*
X319Y721D02*
X378Y721D01*
X119Y720D02*
X178Y720D01*
X219Y720D02*
X278Y720D01*
X319Y720D02*
X378Y720D01*
X119Y719D02*
X177Y719D01*
X219Y719D02*
X277Y719D01*
X319Y719D02*
X377Y719D01*
X119Y718D02*
X177Y718D01*
X219Y718D02*
X277Y718D01*
X319Y718D02*
X377Y718D01*
X120Y717D02*
X177Y717D01*
X219Y717D02*
X277Y717D01*
X319Y717D02*
X377Y717D01*
X120Y716D02*
X177Y716D01*
X220Y716D02*
X277Y716D01*
X320Y716D02*
X377Y716D01*
X120Y715D02*
X177Y715D01*
X220Y715D02*
X277Y715D01*
X320Y715D02*
X377Y715D01*
X120Y714D02*
X176Y714D01*
X220Y714D02*
X276Y714D01*
X320Y714D02*
X376Y714D01*
X121Y713D02*
X176Y713D01*
X221Y713D02*
X276Y713D01*
X321Y713D02*
X376Y713D01*
X121Y712D02*
X176Y712D01*
X221Y712D02*
X276Y712D01*
X321Y712D02*
X376Y712D01*
X122Y711D02*
X175Y711D01*
X221Y711D02*
X275Y711D01*
X321Y711D02*
X375Y711D01*
X122Y710D02*
X175Y710D01*
X222Y710D02*
X275Y710D01*
X322Y710D02*
X375Y710D01*
X122Y709D02*
X174Y709D01*
X222Y709D02*
X274Y709D01*
X322Y709D02*
X374Y709D01*
X123Y708D02*
X174Y708D01*
X223Y708D02*
X274Y708D01*
X323Y708D02*
X374Y708D01*
X124Y707D02*
X173Y707D01*
X224Y707D02*
X273Y707D01*
X324Y707D02*
X373Y707D01*
X124Y706D02*
X172Y706D01*
X224Y706D02*
X272Y706D01*
X324Y706D02*
X372Y706D01*
X125Y705D02*
X172Y705D01*
X225Y705D02*
X271Y705D01*
X325Y705D02*
X371Y705D01*
X126Y704D02*
X171Y704D01*
X226Y704D02*
X271Y704D01*
X326Y704D02*
X371Y704D01*
X127Y703D02*
X170Y703D01*
X227Y703D02*
X270Y703D01*
X327Y703D02*
X370Y703D01*
X128Y702D02*
X169Y702D01*
X228Y702D02*
X269Y702D01*
X328Y702D02*
X369Y702D01*
X129Y701D02*
X168Y701D01*
X229Y701D02*
X268Y701D01*
X329Y701D02*
X368Y701D01*
X130Y700D02*
X167Y700D01*
X230Y700D02*
X267Y700D01*
X330Y700D02*
X367Y700D01*
X131Y699D02*
X165Y699D01*
X231Y699D02*
X265Y699D01*
X331Y699D02*
X365Y699D01*
X133Y698D02*
X164Y698D01*
X233Y698D02*
X264Y698D01*
X333Y698D02*
X364Y698D01*
X134Y697D02*
X162Y697D01*
X234Y697D02*
X262Y697D01*
X334Y697D02*
X362Y697D01*
X137Y696D02*
X160Y696D01*
X236Y696D02*
X260Y696D01*
X336Y696D02*
X360Y696D01*
X139Y695D02*
X158Y695D01*
X239Y695D02*
X258Y695D01*
X339Y695D02*
X358Y695D01*
X143Y694D02*
X154Y694D01*
X243Y694D02*
X254Y694D01*
X342Y694D02*
X354Y694D01*
D02*
G04 End of Copper0*
M02*